<?xml version="1.0" encoding="UTF-8" standalone="no"?>
<!-- Created with Inkscape (http://www.inkscape.org/) -->

<svg
   xmlns:dc="http://purl.org/dc/elements/1.1/"
   xmlns:cc="http://creativecommons.org/ns#"
   xmlns:rdf="http://www.w3.org/1999/02/22-rdf-syntax-ns#"
   xmlns:svg="http://www.w3.org/2000/svg"
   xmlns="http://www.w3.org/2000/svg"
   xmlns:sodipodi="http://sodipodi.sourceforge.net/DTD/sodipodi-0.dtd"
   xmlns:inkscape="http://www.inkscape.org/namespaces/inkscape"
   width="210mm"
   height="148mm"
   viewBox="0 0 744.09449 524.40944"
   id="svg4376"
   version="1.1"
   inkscape:version="0.91 r13725"
   sodipodi:docname="page.svg">
  <defs
     id="defs4378" />
  <sodipodi:namedview
     id="base"
     pagecolor="#ffffff"
     bordercolor="#666666"
     borderopacity="1.0"
     inkscape:pageopacity="0.0"
     inkscape:pageshadow="2"
     inkscape:zoom="1"
     inkscape:cx="278.12563"
     inkscape:cy="211.60092"
     inkscape:document-units="px"
     inkscape:current-layer="layer1"
     showgrid="false"
     showguides="true"
     inkscape:guide-bbox="true"
     inkscape:snap-page="true"
     inkscape:object-paths="true"
     inkscape:object-nodes="true"
     inkscape:snap-bbox="true"
     inkscape:bbox-paths="true"
     inkscape:snap-global="false"
     inkscape:window-width="1855"
     inkscape:window-height="1056"
     inkscape:window-x="65"
     inkscape:window-y="24"
     inkscape:window-maximized="1" />
  <metadata
     id="metadata4381">
    <rdf:RDF>
      <cc:Work
         rdf:about="">
        <dc:format>image/svg+xml</dc:format>
        <dc:type
           rdf:resource="http://purl.org/dc/dcmitype/StillImage" />
        <dc:title></dc:title>
      </cc:Work>
    </rdf:RDF>
  </metadata>
  <g
     inkscape:label="Layer 1"
     inkscape:groupmode="layer"
     id="layer1"
     transform="translate(0,-527.95276)">
    <rect
       style="fill:#ececec;fill-opacity:1;stroke:none;stroke-width:35.43307114;stroke-linejoin:miter;stroke-miterlimit:4;stroke-dasharray:none;stroke-opacity:1"
       id="rect4154-5"
       width="380.67493"
       height="524.40948"
       x="0"
       y="527.9527" />
    <rect
       style="fill:#ffffff;fill-opacity:1;stroke:none;stroke-width:35.43307114;stroke-linejoin:miter;stroke-miterlimit:4;stroke-dasharray:none;stroke-opacity:1"
       id="rect4154"
       width="329.3707"
       height="474.4657"
       x="25.652122"
       y="552.92462" />
    <rect
       style="fill:#ececec;fill-opacity:1;stroke:none;stroke-width:35.43307114;stroke-linejoin:miter;stroke-miterlimit:4;stroke-dasharray:none;stroke-opacity:1"
       id="rect4156-3-7"
       width="25.652122"
       height="24.97188"
       x="0"
       y="1027.3903" />
    <g
       style="font-style:normal;font-weight:normal;font-size:30px;line-height:125%;font-family:sans-serif;letter-spacing:0px;word-spacing:0px;fill:#b3b3b3;fill-opacity:1;stroke:none;stroke-width:1px;stroke-linecap:butt;stroke-linejoin:miter;stroke-opacity:1"
       id="text4220"
       transform="matrix(0.66361688,0,0,0.70476195,40.020276,310.69738)">
      <path
         d="m 553.40601,375.31442 0,17.00684 3.57421,0 q 4.52637,0 6.6211,-2.05078 2.10937,-2.05078 2.10937,-6.47461 0,-4.39453 -2.10937,-6.43067 -2.09473,-2.05078 -6.6211,-2.05078 l -3.57421,0 z m -2.95899,-2.43164 6.0791,0 q 6.35742,0 9.33106,2.65137 2.97363,2.63672 2.97363,8.26172 0,5.65429 -2.98828,8.30566 -2.98828,2.65137 -9.31641,2.65137 l -6.0791,0 0,-21.87012 z"
         id="path4435"
         inkscape:connector-curvature="0" />
      <path
         d="m 587.44897,385.87595 0,1.31836 -12.39257,0 q 0.17578,2.7832 1.66992,4.24804 1.50879,1.4502 4.18945,1.4502 1.55274,0 3.00293,-0.38086 1.46484,-0.38086 2.90039,-1.14258 l 0,2.54883 q -1.45019,0.61523 -2.97363,0.9375 -1.52344,0.32226 -3.09082,0.32226 -3.92578,0 -6.22559,-2.28515 -2.28515,-2.28516 -2.28515,-6.18164 0,-4.02832 2.16797,-6.38672 2.18261,-2.37305 5.87402,-2.37305 3.31055,0 5.22949,2.13867 1.93359,2.12403 1.93359,5.78614 z m -2.69531,-0.79102 q -0.0293,-2.21191 -1.24512,-3.53027 -1.20117,-1.31836 -3.19335,-1.31836 -2.25586,0 -3.61817,1.27441 -1.34765,1.27442 -1.55273,3.58887 l 9.60937,-0.0147 z"
         id="path4437"
         inkscape:connector-curvature="0" />
      <path
         d="m 602.33179,378.83005 0,2.54883 q -1.14258,-0.58594 -2.37305,-0.87891 -1.23047,-0.29297 -2.54883,-0.29297 -2.00683,0 -3.01758,0.61524 -0.99609,0.61523 -0.99609,1.8457 0,0.9375 0.71777,1.47949 0.71778,0.52734 2.88575,1.01074 l 0.92285,0.20508 q 2.87109,0.61524 4.07226,1.74316 1.21582,1.11329 1.21582,3.12012 0,2.28516 -1.8164,3.61817 -1.80176,1.333 -4.96582,1.333 -1.31836,0 -2.75391,-0.26367 -1.4209,-0.24902 -3.00293,-0.76172 l 0,-2.7832 q 1.49414,0.77637 2.94434,1.17188 1.45019,0.38085 2.87109,0.38085 1.9043,0 2.92969,-0.64453 1.02539,-0.65918 1.02539,-1.8457 0,-1.09863 -0.74707,-1.68457 -0.73242,-0.58594 -3.23731,-1.12793 l -0.9375,-0.21973 q -2.50488,-0.52734 -3.61816,-1.61132 -1.11328,-1.09864 -1.11328,-3.00293 0,-2.31446 1.64062,-3.57422 1.64063,-1.25977 4.65821,-1.25977 1.49414,0 2.8125,0.21973 1.31836,0.21972 2.43164,0.65918 z"
         id="path4439"
         inkscape:connector-curvature="0" />
      <path
         d="m 619.32397,378.97653 0,2.51953 q -1.14257,-0.62988 -2.2998,-0.9375 -1.14258,-0.32226 -2.31445,-0.32226 -2.62207,0 -4.07227,1.66992 -1.45019,1.65527 -1.45019,4.6582 0,3.00293 1.45019,4.67285 1.4502,1.65528 4.07227,1.65528 1.17187,0 2.31445,-0.30762 1.15723,-0.32227 2.2998,-0.95215 l 0,2.49024 q -1.12793,0.52734 -2.34375,0.79101 -1.20117,0.26367 -2.56347,0.26367 -3.70606,0 -5.88867,-2.3291 -2.18262,-2.3291 -2.18262,-6.28418 0,-4.01367 2.19726,-6.31347 2.21192,-2.29981 6.04981,-2.29981 1.24512,0 2.43164,0.26367 1.18652,0.24903 2.2998,0.76172 z"
         id="path4441"
         inkscape:connector-curvature="0" />
      <path
         d="m 633.54761,380.86618 q -0.4541,-0.26367 -0.9961,-0.38086 -0.52734,-0.13183 -1.17187,-0.13183 -2.28516,0 -3.51563,1.49414 -1.21582,1.47949 -1.21582,4.26269 l 0,8.64258 -2.70996,0 0,-16.40625 2.70996,0 0,2.54883 q 0.84961,-1.49414 2.21192,-2.21192 1.3623,-0.73242 3.31054,-0.73242 0.27832,0 0.61524,0.0439 0.33691,0.0293 0.74707,0.10254 l 0.0146,2.76855 z"
         id="path4443"
         inkscape:connector-curvature="0" />
      <path
         d="m 636.40405,378.34665 2.69532,0 0,16.40625 -2.69532,0 0,-16.40625 z m 0,-6.38672 2.69532,0 0,3.41309 -2.69532,0 0,-3.41309 z"
         id="path4445"
         inkscape:connector-curvature="0" />
      <path
         d="m 656.53101,378.97653 0,2.51953 q -1.14258,-0.62988 -2.29981,-0.9375 -1.14258,-0.32226 -2.31445,-0.32226 -2.62207,0 -4.07227,1.66992 -1.45019,1.65527 -1.45019,4.6582 0,3.00293 1.45019,4.67285 1.4502,1.65528 4.07227,1.65528 1.17187,0 2.31445,-0.30762 1.15723,-0.32227 2.29981,-0.95215 l 0,2.49024 q -1.12793,0.52734 -2.34375,0.79101 -1.20118,0.26367 -2.56348,0.26367 -3.70606,0 -5.88867,-2.3291 -2.18262,-2.3291 -2.18262,-6.28418 0,-4.01367 2.19727,-6.31347 2.21191,-2.29981 6.0498,-2.29981 1.24512,0 2.43164,0.26367 1.18652,0.24903 2.29981,0.76172 z m -3.8086,15.77637 q 0.80567,0.9082 1.20117,1.66992 0.39551,0.77637 0.39551,1.47949 0,1.30371 -0.8789,1.96289 -0.87891,0.67383 -2.60743,0.67383 -0.67382,0 -1.31836,-0.0879 -0.62988,-0.0879 -1.25976,-0.26367 l 0,-1.91895 q 0.49805,0.24903 1.04004,0.35157 0.54199,0.11718 1.23047,0.11718 0.86425,0 1.30371,-0.35156 0.43945,-0.35156 0.43945,-1.02539 0,-0.43945 -0.32227,-1.08398 -0.30761,-0.62989 -0.96679,-1.52344 l 1.74316,0 z"
         id="path4447"
         inkscape:connector-curvature="0" />
      <path
         d="m 668.70386,386.50583 q -3.2666,0 -4.52637,0.74707 -1.25977,0.74707 -1.25977,2.54883 0,1.43554 0.9375,2.28515 0.95215,0.83496 2.57813,0.83496 2.24121,0 3.58887,-1.58203 1.3623,-1.59668 1.3623,-4.2334 l 0,-0.60058 -2.68066,0 z m 5.37597,-1.11328 0,9.36035 -2.69531,0 0,-2.49024 q -0.92285,1.49415 -2.2998,2.21192 -1.37696,0.70312 -3.36914,0.70312 -2.51954,0 -4.01368,-1.40625 -1.47949,-1.42089 -1.47949,-3.79394 0,-2.76856 1.84571,-4.17481 1.86035,-1.40625 5.5371,-1.40625 l 3.7793,0 0,-0.26367 q 0,-1.86035 -1.23047,-2.87109 -1.21582,-1.02539 -3.42773,-1.02539 -1.40625,0 -2.73926,0.33691 -1.33301,0.33692 -2.56348,1.01074 l 0,-2.49023 q 1.4795,-0.57129 2.8711,-0.84961 1.3916,-0.29297 2.70996,-0.29297 3.55957,0 5.31738,1.8457 1.75781,1.84571 1.75781,5.59571 z m -7.0166,-10.70801 -0.83496,-0.80566 q -0.32226,-0.29297 -0.57129,-0.42481 -0.23437,-0.14648 -0.4248,-0.14648 -0.55664,0 -0.82031,0.54199 -0.26368,0.52734 -0.29297,1.72851 l -1.83106,0 q 0.0293,-1.97753 0.77637,-3.04687 0.74707,-1.08398 2.08008,-1.08398 0.55664,0 1.02539,0.20507 0.46875,0.20508 1.01074,0.68848 l 0.83496,0.80566 q 0.32227,0.29297 0.55664,0.43946 0.24902,0.13183 0.43945,0.13183 0.55665,0 0.82032,-0.52734 0.26367,-0.54199 0.29297,-1.74316 l 1.83105,0 q -0.0293,1.97753 -0.77637,3.06152 -0.74707,1.06933 -2.08007,1.06933 -0.55665,0 -1.0254,-0.20507 -0.46875,-0.20508 -1.01074,-0.68848 z"
         id="path4449"
         inkscape:connector-curvature="0" />
      <path
         d="m 686.00366,380.2363 q -2.16797,0 -3.42773,1.69922 -1.25977,1.68457 -1.25977,4.6289 0,2.94434 1.24512,4.64356 1.25976,1.68457 3.44238,1.68457 2.15332,0 3.41309,-1.69922 1.25976,-1.69922 1.25976,-4.62891 0,-2.91504 -1.25976,-4.61426 -1.25977,-1.71386 -3.41309,-1.71386 z m 0,-2.28516 q 3.51563,0 5.52246,2.28516 2.00684,2.28515 2.00684,6.32812 0,4.02832 -2.00684,6.32813 -2.00683,2.28515 -5.52246,2.28515 -3.53027,0 -5.53711,-2.28515 -1.99218,-2.29981 -1.99218,-6.32813 0,-4.04297 1.99218,-6.32812 2.00684,-2.28516 5.53711,-2.28516 z"
         id="path4451"
         inkscape:connector-curvature="0" />
      <path
         d="m 698.67456,391.0322 3.09082,0 0,3.7207 -3.09082,0 0,-3.7207 z m 0,-11.792 3.09082,0 0,3.72071 -3.09082,0 0,-3.72071 z"
         id="path4453"
         inkscape:connector-curvature="0" />
      <path
         d="m 562.79565,437.23337 0,2.09472 -15.58593,0 0,-2.09472 15.58593,0 z"
         id="path4455"
         inkscape:connector-curvature="0" />
      <path
         d="m 577.79565,437.23337 0,2.09472 -15.58593,0 0,-2.09472 15.58593,0 z"
         id="path4457"
         inkscape:connector-curvature="0" />
      <path
         d="m 592.79565,437.23337 0,2.09472 -15.58593,0 0,-2.09472 15.58593,0 z"
         id="path4459"
         inkscape:connector-curvature="0" />
      <path
         d="m 607.79565,437.23337 0,2.09472 -15.58593,0 0,-2.09472 15.58593,0 z"
         id="path4461"
         inkscape:connector-curvature="0" />
      <path
         d="m 622.79565,437.23337 0,2.09472 -15.58593,0 0,-2.09472 15.58593,0 z"
         id="path4463"
         inkscape:connector-curvature="0" />
      <path
         d="m 637.79565,437.23337 0,2.09472 -15.58593,0 0,-2.09472 15.58593,0 z"
         id="path4465"
         inkscape:connector-curvature="0" />
      <path
         d="m 652.79565,437.23337 0,2.09472 -15.58593,0 0,-2.09472 15.58593,0 z"
         id="path4467"
         inkscape:connector-curvature="0" />
      <path
         d="m 667.79565,437.23337 0,2.09472 -15.58593,0 0,-2.09472 15.58593,0 z"
         id="path4469"
         inkscape:connector-curvature="0" />
      <path
         d="m 682.79565,437.23337 0,2.09472 -15.58593,0 0,-2.09472 15.58593,0 z"
         id="path4471"
         inkscape:connector-curvature="0" />
      <path
         d="m 697.79565,437.23337 0,2.09472 -15.58593,0 0,-2.09472 15.58593,0 z"
         id="path4473"
         inkscape:connector-curvature="0" />
      <path
         d="m 712.79565,437.23337 0,2.09472 -15.58593,0 0,-2.09472 15.58593,0 z"
         id="path4475"
         inkscape:connector-curvature="0" />
      <path
         d="m 727.79565,437.23337 0,2.09472 -15.58593,0 0,-2.09472 15.58593,0 z"
         id="path4477"
         inkscape:connector-curvature="0" />
      <path
         d="m 742.79565,437.23337 0,2.09472 -15.58593,0 0,-2.09472 15.58593,0 z"
         id="path4479"
         inkscape:connector-curvature="0" />
      <path
         d="m 757.79565,437.23337 0,2.09472 -15.58593,0 0,-2.09472 15.58593,0 z"
         id="path4481"
         inkscape:connector-curvature="0" />
      <path
         d="m 772.79565,437.23337 0,2.09472 -15.58593,0 0,-2.09472 15.58593,0 z"
         id="path4483"
         inkscape:connector-curvature="0" />
      <path
         d="m 787.79565,437.23337 0,2.09472 -15.58593,0 0,-2.09472 15.58593,0 z"
         id="path4485"
         inkscape:connector-curvature="0" />
      <path
         d="m 802.79565,437.23337 0,2.09472 -15.58593,0 0,-2.09472 15.58593,0 z"
         id="path4487"
         inkscape:connector-curvature="0" />
      <path
         d="m 817.79565,437.23337 0,2.09472 -15.58593,0 0,-2.09472 15.58593,0 z"
         id="path4489"
         inkscape:connector-curvature="0" />
      <path
         d="m 832.79565,437.23337 0,2.09472 -15.58593,0 0,-2.09472 15.58593,0 z"
         id="path4491"
         inkscape:connector-curvature="0" />
      <path
         d="m 847.79565,437.23337 0,2.09472 -15.58593,0 0,-2.09472 15.58593,0 z"
         id="path4493"
         inkscape:connector-curvature="0" />
      <path
         d="m 862.79565,437.23337 0,2.09472 -15.58593,0 0,-2.09472 15.58593,0 z"
         id="path4495"
         inkscape:connector-curvature="0" />
      <path
         d="m 877.79565,437.23337 0,2.09472 -15.58593,0 0,-2.09472 15.58593,0 z"
         id="path4497"
         inkscape:connector-curvature="0" />
      <path
         d="m 892.79565,437.23337 0,2.09472 -15.58593,0 0,-2.09472 15.58593,0 z"
         id="path4499"
         inkscape:connector-curvature="0" />
      <path
         d="m 907.79565,437.23337 0,2.09472 -15.58593,0 0,-2.09472 15.58593,0 z"
         id="path4501"
         inkscape:connector-curvature="0" />
      <path
         d="m 922.79565,437.23337 0,2.09472 -15.58593,0 0,-2.09472 15.58593,0 z"
         id="path4503"
         inkscape:connector-curvature="0" />
      <path
         d="m 937.79565,437.23337 0,2.09472 -15.58593,0 0,-2.09472 15.58593,0 z"
         id="path4505"
         inkscape:connector-curvature="0" />
      <path
         d="m 952.79565,437.23337 0,2.09472 -15.58593,0 0,-2.09472 15.58593,0 z"
         id="path4507"
         inkscape:connector-curvature="0" />
      <path
         d="m 967.79565,437.23337 0,2.09472 -15.58593,0 0,-2.09472 15.58593,0 z"
         id="path4509"
         inkscape:connector-curvature="0" />
      <path
         d="m 982.79565,437.23337 0,2.09472 -15.58593,0 0,-2.09472 15.58593,0 z"
         id="path4511"
         inkscape:connector-curvature="0" />
      <path
         d="m 997.79565,437.23337 0,2.09472 -15.58593,0 0,-2.09472 15.58593,0 z"
         id="path4513"
         inkscape:connector-curvature="0" />
      <path
         d="m 1012.7957,437.23337 0,2.09472 -15.58598,0 0,-2.09472 15.58598,0 z"
         id="path4515"
         inkscape:connector-curvature="0" />
      <path
         d="m 1027.7957,437.23337 0,2.09472 -15.586,0 0,-2.09472 15.586,0 z"
         id="path4517"
         inkscape:connector-curvature="0" />
      <path
         d="m 562.79565,474.73337 0,2.09472 -15.58593,0 0,-2.09472 15.58593,0 z"
         id="path4519"
         inkscape:connector-curvature="0" />
      <path
         d="m 577.79565,474.73337 0,2.09472 -15.58593,0 0,-2.09472 15.58593,0 z"
         id="path4521"
         inkscape:connector-curvature="0" />
      <path
         d="m 592.79565,474.73337 0,2.09472 -15.58593,0 0,-2.09472 15.58593,0 z"
         id="path4523"
         inkscape:connector-curvature="0" />
      <path
         d="m 607.79565,474.73337 0,2.09472 -15.58593,0 0,-2.09472 15.58593,0 z"
         id="path4525"
         inkscape:connector-curvature="0" />
      <path
         d="m 622.79565,474.73337 0,2.09472 -15.58593,0 0,-2.09472 15.58593,0 z"
         id="path4527"
         inkscape:connector-curvature="0" />
      <path
         d="m 637.79565,474.73337 0,2.09472 -15.58593,0 0,-2.09472 15.58593,0 z"
         id="path4529"
         inkscape:connector-curvature="0" />
      <path
         d="m 652.79565,474.73337 0,2.09472 -15.58593,0 0,-2.09472 15.58593,0 z"
         id="path4531"
         inkscape:connector-curvature="0" />
      <path
         d="m 667.79565,474.73337 0,2.09472 -15.58593,0 0,-2.09472 15.58593,0 z"
         id="path4533"
         inkscape:connector-curvature="0" />
      <path
         d="m 682.79565,474.73337 0,2.09472 -15.58593,0 0,-2.09472 15.58593,0 z"
         id="path4535"
         inkscape:connector-curvature="0" />
      <path
         d="m 697.79565,474.73337 0,2.09472 -15.58593,0 0,-2.09472 15.58593,0 z"
         id="path4537"
         inkscape:connector-curvature="0" />
      <path
         d="m 712.79565,474.73337 0,2.09472 -15.58593,0 0,-2.09472 15.58593,0 z"
         id="path4539"
         inkscape:connector-curvature="0" />
      <path
         d="m 727.79565,474.73337 0,2.09472 -15.58593,0 0,-2.09472 15.58593,0 z"
         id="path4541"
         inkscape:connector-curvature="0" />
      <path
         d="m 742.79565,474.73337 0,2.09472 -15.58593,0 0,-2.09472 15.58593,0 z"
         id="path4543"
         inkscape:connector-curvature="0" />
      <path
         d="m 757.79565,474.73337 0,2.09472 -15.58593,0 0,-2.09472 15.58593,0 z"
         id="path4545"
         inkscape:connector-curvature="0" />
      <path
         d="m 772.79565,474.73337 0,2.09472 -15.58593,0 0,-2.09472 15.58593,0 z"
         id="path4547"
         inkscape:connector-curvature="0" />
      <path
         d="m 787.79565,474.73337 0,2.09472 -15.58593,0 0,-2.09472 15.58593,0 z"
         id="path4549"
         inkscape:connector-curvature="0" />
      <path
         d="m 802.79565,474.73337 0,2.09472 -15.58593,0 0,-2.09472 15.58593,0 z"
         id="path4551"
         inkscape:connector-curvature="0" />
      <path
         d="m 817.79565,474.73337 0,2.09472 -15.58593,0 0,-2.09472 15.58593,0 z"
         id="path4553"
         inkscape:connector-curvature="0" />
      <path
         d="m 832.79565,474.73337 0,2.09472 -15.58593,0 0,-2.09472 15.58593,0 z"
         id="path4555"
         inkscape:connector-curvature="0" />
      <path
         d="m 847.79565,474.73337 0,2.09472 -15.58593,0 0,-2.09472 15.58593,0 z"
         id="path4557"
         inkscape:connector-curvature="0" />
      <path
         d="m 862.79565,474.73337 0,2.09472 -15.58593,0 0,-2.09472 15.58593,0 z"
         id="path4559"
         inkscape:connector-curvature="0" />
      <path
         d="m 877.79565,474.73337 0,2.09472 -15.58593,0 0,-2.09472 15.58593,0 z"
         id="path4561"
         inkscape:connector-curvature="0" />
      <path
         d="m 892.79565,474.73337 0,2.09472 -15.58593,0 0,-2.09472 15.58593,0 z"
         id="path4563"
         inkscape:connector-curvature="0" />
      <path
         d="m 907.79565,474.73337 0,2.09472 -15.58593,0 0,-2.09472 15.58593,0 z"
         id="path4565"
         inkscape:connector-curvature="0" />
      <path
         d="m 922.79565,474.73337 0,2.09472 -15.58593,0 0,-2.09472 15.58593,0 z"
         id="path4567"
         inkscape:connector-curvature="0" />
      <path
         d="m 937.79565,474.73337 0,2.09472 -15.58593,0 0,-2.09472 15.58593,0 z"
         id="path4569"
         inkscape:connector-curvature="0" />
      <path
         d="m 952.79565,474.73337 0,2.09472 -15.58593,0 0,-2.09472 15.58593,0 z"
         id="path4571"
         inkscape:connector-curvature="0" />
      <path
         d="m 967.79565,474.73337 0,2.09472 -15.58593,0 0,-2.09472 15.58593,0 z"
         id="path4573"
         inkscape:connector-curvature="0" />
      <path
         d="m 982.79565,474.73337 0,2.09472 -15.58593,0 0,-2.09472 15.58593,0 z"
         id="path4575"
         inkscape:connector-curvature="0" />
      <path
         d="m 997.79565,474.73337 0,2.09472 -15.58593,0 0,-2.09472 15.58593,0 z"
         id="path4577"
         inkscape:connector-curvature="0" />
      <path
         d="m 1012.7957,474.73337 0,2.09472 -15.58598,0 0,-2.09472 15.58598,0 z"
         id="path4579"
         inkscape:connector-curvature="0" />
      <path
         d="m 1027.7957,474.73337 0,2.09472 -15.586,0 0,-2.09472 15.586,0 z"
         id="path4581"
         inkscape:connector-curvature="0" />
      <path
         d="m 562.79565,512.23337 0,2.09472 -15.58593,0 0,-2.09472 15.58593,0 z"
         id="path4583"
         inkscape:connector-curvature="0" />
      <path
         d="m 577.79565,512.23337 0,2.09472 -15.58593,0 0,-2.09472 15.58593,0 z"
         id="path4585"
         inkscape:connector-curvature="0" />
      <path
         d="m 592.79565,512.23337 0,2.09472 -15.58593,0 0,-2.09472 15.58593,0 z"
         id="path4587"
         inkscape:connector-curvature="0" />
      <path
         d="m 607.79565,512.23337 0,2.09472 -15.58593,0 0,-2.09472 15.58593,0 z"
         id="path4589"
         inkscape:connector-curvature="0" />
      <path
         d="m 622.79565,512.23337 0,2.09472 -15.58593,0 0,-2.09472 15.58593,0 z"
         id="path4591"
         inkscape:connector-curvature="0" />
      <path
         d="m 637.79565,512.23337 0,2.09472 -15.58593,0 0,-2.09472 15.58593,0 z"
         id="path4593"
         inkscape:connector-curvature="0" />
      <path
         d="m 652.79565,512.23337 0,2.09472 -15.58593,0 0,-2.09472 15.58593,0 z"
         id="path4595"
         inkscape:connector-curvature="0" />
      <path
         d="m 667.79565,512.23337 0,2.09472 -15.58593,0 0,-2.09472 15.58593,0 z"
         id="path4597"
         inkscape:connector-curvature="0" />
      <path
         d="m 682.79565,512.23337 0,2.09472 -15.58593,0 0,-2.09472 15.58593,0 z"
         id="path4599"
         inkscape:connector-curvature="0" />
      <path
         d="m 697.79565,512.23337 0,2.09472 -15.58593,0 0,-2.09472 15.58593,0 z"
         id="path4601"
         inkscape:connector-curvature="0" />
      <path
         d="m 712.79565,512.23337 0,2.09472 -15.58593,0 0,-2.09472 15.58593,0 z"
         id="path4603"
         inkscape:connector-curvature="0" />
      <path
         d="m 727.79565,512.23337 0,2.09472 -15.58593,0 0,-2.09472 15.58593,0 z"
         id="path4605"
         inkscape:connector-curvature="0" />
      <path
         d="m 742.79565,512.23337 0,2.09472 -15.58593,0 0,-2.09472 15.58593,0 z"
         id="path4607"
         inkscape:connector-curvature="0" />
      <path
         d="m 757.79565,512.23337 0,2.09472 -15.58593,0 0,-2.09472 15.58593,0 z"
         id="path4609"
         inkscape:connector-curvature="0" />
      <path
         d="m 772.79565,512.23337 0,2.09472 -15.58593,0 0,-2.09472 15.58593,0 z"
         id="path4611"
         inkscape:connector-curvature="0" />
      <path
         d="m 787.79565,512.23337 0,2.09472 -15.58593,0 0,-2.09472 15.58593,0 z"
         id="path4613"
         inkscape:connector-curvature="0" />
      <path
         d="m 802.79565,512.23337 0,2.09472 -15.58593,0 0,-2.09472 15.58593,0 z"
         id="path4615"
         inkscape:connector-curvature="0" />
      <path
         d="m 817.79565,512.23337 0,2.09472 -15.58593,0 0,-2.09472 15.58593,0 z"
         id="path4617"
         inkscape:connector-curvature="0" />
      <path
         d="m 832.79565,512.23337 0,2.09472 -15.58593,0 0,-2.09472 15.58593,0 z"
         id="path4619"
         inkscape:connector-curvature="0" />
      <path
         d="m 847.79565,512.23337 0,2.09472 -15.58593,0 0,-2.09472 15.58593,0 z"
         id="path4621"
         inkscape:connector-curvature="0" />
      <path
         d="m 862.79565,512.23337 0,2.09472 -15.58593,0 0,-2.09472 15.58593,0 z"
         id="path4623"
         inkscape:connector-curvature="0" />
      <path
         d="m 877.79565,512.23337 0,2.09472 -15.58593,0 0,-2.09472 15.58593,0 z"
         id="path4625"
         inkscape:connector-curvature="0" />
      <path
         d="m 892.79565,512.23337 0,2.09472 -15.58593,0 0,-2.09472 15.58593,0 z"
         id="path4627"
         inkscape:connector-curvature="0" />
      <path
         d="m 907.79565,512.23337 0,2.09472 -15.58593,0 0,-2.09472 15.58593,0 z"
         id="path4629"
         inkscape:connector-curvature="0" />
      <path
         d="m 922.79565,512.23337 0,2.09472 -15.58593,0 0,-2.09472 15.58593,0 z"
         id="path4631"
         inkscape:connector-curvature="0" />
      <path
         d="m 937.79565,512.23337 0,2.09472 -15.58593,0 0,-2.09472 15.58593,0 z"
         id="path4633"
         inkscape:connector-curvature="0" />
      <path
         d="m 952.79565,512.23337 0,2.09472 -15.58593,0 0,-2.09472 15.58593,0 z"
         id="path4635"
         inkscape:connector-curvature="0" />
      <path
         d="m 967.79565,512.23337 0,2.09472 -15.58593,0 0,-2.09472 15.58593,0 z"
         id="path4637"
         inkscape:connector-curvature="0" />
      <path
         d="m 982.79565,512.23337 0,2.09472 -15.58593,0 0,-2.09472 15.58593,0 z"
         id="path4639"
         inkscape:connector-curvature="0" />
      <path
         d="m 997.79565,512.23337 0,2.09472 -15.58593,0 0,-2.09472 15.58593,0 z"
         id="path4641"
         inkscape:connector-curvature="0" />
      <path
         d="m 1012.7957,512.23337 0,2.09472 -15.58598,0 0,-2.09472 15.58598,0 z"
         id="path4643"
         inkscape:connector-curvature="0" />
      <path
         d="m 1027.7957,512.23337 0,2.09472 -15.586,0 0,-2.09472 15.586,0 z"
         id="path4645"
         inkscape:connector-curvature="0" />
      <path
         d="m 562.79565,549.73337 0,2.09472 -15.58593,0 0,-2.09472 15.58593,0 z"
         id="path4647"
         inkscape:connector-curvature="0" />
      <path
         d="m 577.79565,549.73337 0,2.09472 -15.58593,0 0,-2.09472 15.58593,0 z"
         id="path4649"
         inkscape:connector-curvature="0" />
      <path
         d="m 592.79565,549.73337 0,2.09472 -15.58593,0 0,-2.09472 15.58593,0 z"
         id="path4651"
         inkscape:connector-curvature="0" />
      <path
         d="m 607.79565,549.73337 0,2.09472 -15.58593,0 0,-2.09472 15.58593,0 z"
         id="path4653"
         inkscape:connector-curvature="0" />
      <path
         d="m 622.79565,549.73337 0,2.09472 -15.58593,0 0,-2.09472 15.58593,0 z"
         id="path4655"
         inkscape:connector-curvature="0" />
      <path
         d="m 637.79565,549.73337 0,2.09472 -15.58593,0 0,-2.09472 15.58593,0 z"
         id="path4657"
         inkscape:connector-curvature="0" />
      <path
         d="m 652.79565,549.73337 0,2.09472 -15.58593,0 0,-2.09472 15.58593,0 z"
         id="path4659"
         inkscape:connector-curvature="0" />
      <path
         d="m 667.79565,549.73337 0,2.09472 -15.58593,0 0,-2.09472 15.58593,0 z"
         id="path4661"
         inkscape:connector-curvature="0" />
      <path
         d="m 682.79565,549.73337 0,2.09472 -15.58593,0 0,-2.09472 15.58593,0 z"
         id="path4663"
         inkscape:connector-curvature="0" />
      <path
         d="m 697.79565,549.73337 0,2.09472 -15.58593,0 0,-2.09472 15.58593,0 z"
         id="path4665"
         inkscape:connector-curvature="0" />
      <path
         d="m 712.79565,549.73337 0,2.09472 -15.58593,0 0,-2.09472 15.58593,0 z"
         id="path4667"
         inkscape:connector-curvature="0" />
      <path
         d="m 727.79565,549.73337 0,2.09472 -15.58593,0 0,-2.09472 15.58593,0 z"
         id="path4669"
         inkscape:connector-curvature="0" />
      <path
         d="m 742.79565,549.73337 0,2.09472 -15.58593,0 0,-2.09472 15.58593,0 z"
         id="path4671"
         inkscape:connector-curvature="0" />
      <path
         d="m 757.79565,549.73337 0,2.09472 -15.58593,0 0,-2.09472 15.58593,0 z"
         id="path4673"
         inkscape:connector-curvature="0" />
      <path
         d="m 772.79565,549.73337 0,2.09472 -15.58593,0 0,-2.09472 15.58593,0 z"
         id="path4675"
         inkscape:connector-curvature="0" />
      <path
         d="m 787.79565,549.73337 0,2.09472 -15.58593,0 0,-2.09472 15.58593,0 z"
         id="path4677"
         inkscape:connector-curvature="0" />
      <path
         d="m 802.79565,549.73337 0,2.09472 -15.58593,0 0,-2.09472 15.58593,0 z"
         id="path4679"
         inkscape:connector-curvature="0" />
      <path
         d="m 817.79565,549.73337 0,2.09472 -15.58593,0 0,-2.09472 15.58593,0 z"
         id="path4681"
         inkscape:connector-curvature="0" />
      <path
         d="m 832.79565,549.73337 0,2.09472 -15.58593,0 0,-2.09472 15.58593,0 z"
         id="path4683"
         inkscape:connector-curvature="0" />
      <path
         d="m 847.79565,549.73337 0,2.09472 -15.58593,0 0,-2.09472 15.58593,0 z"
         id="path4685"
         inkscape:connector-curvature="0" />
      <path
         d="m 862.79565,549.73337 0,2.09472 -15.58593,0 0,-2.09472 15.58593,0 z"
         id="path4687"
         inkscape:connector-curvature="0" />
      <path
         d="m 877.79565,549.73337 0,2.09472 -15.58593,0 0,-2.09472 15.58593,0 z"
         id="path4689"
         inkscape:connector-curvature="0" />
      <path
         d="m 892.79565,549.73337 0,2.09472 -15.58593,0 0,-2.09472 15.58593,0 z"
         id="path4691"
         inkscape:connector-curvature="0" />
      <path
         d="m 907.79565,549.73337 0,2.09472 -15.58593,0 0,-2.09472 15.58593,0 z"
         id="path4693"
         inkscape:connector-curvature="0" />
      <path
         d="m 922.79565,549.73337 0,2.09472 -15.58593,0 0,-2.09472 15.58593,0 z"
         id="path4695"
         inkscape:connector-curvature="0" />
      <path
         d="m 937.79565,549.73337 0,2.09472 -15.58593,0 0,-2.09472 15.58593,0 z"
         id="path4697"
         inkscape:connector-curvature="0" />
      <path
         d="m 952.79565,549.73337 0,2.09472 -15.58593,0 0,-2.09472 15.58593,0 z"
         id="path4699"
         inkscape:connector-curvature="0" />
      <path
         d="m 967.79565,549.73337 0,2.09472 -15.58593,0 0,-2.09472 15.58593,0 z"
         id="path4701"
         inkscape:connector-curvature="0" />
      <path
         d="m 982.79565,549.73337 0,2.09472 -15.58593,0 0,-2.09472 15.58593,0 z"
         id="path4703"
         inkscape:connector-curvature="0" />
      <path
         d="m 997.79565,549.73337 0,2.09472 -15.58593,0 0,-2.09472 15.58593,0 z"
         id="path4705"
         inkscape:connector-curvature="0" />
      <path
         d="m 1012.7957,549.73337 0,2.09472 -15.58598,0 0,-2.09472 15.58598,0 z"
         id="path4707"
         inkscape:connector-curvature="0" />
      <path
         d="m 1027.7957,549.73337 0,2.09472 -15.586,0 0,-2.09472 15.586,0 z"
         id="path4709"
         inkscape:connector-curvature="0" />
      <path
         d="m 562.79565,587.23337 0,2.09472 -15.58593,0 0,-2.09472 15.58593,0 z"
         id="path4711"
         inkscape:connector-curvature="0" />
      <path
         d="m 577.79565,587.23337 0,2.09472 -15.58593,0 0,-2.09472 15.58593,0 z"
         id="path4713"
         inkscape:connector-curvature="0" />
      <path
         d="m 592.79565,587.23337 0,2.09472 -15.58593,0 0,-2.09472 15.58593,0 z"
         id="path4715"
         inkscape:connector-curvature="0" />
      <path
         d="m 607.79565,587.23337 0,2.09472 -15.58593,0 0,-2.09472 15.58593,0 z"
         id="path4717"
         inkscape:connector-curvature="0" />
      <path
         d="m 622.79565,587.23337 0,2.09472 -15.58593,0 0,-2.09472 15.58593,0 z"
         id="path4719"
         inkscape:connector-curvature="0" />
      <path
         d="m 637.79565,587.23337 0,2.09472 -15.58593,0 0,-2.09472 15.58593,0 z"
         id="path4721"
         inkscape:connector-curvature="0" />
      <path
         d="m 652.79565,587.23337 0,2.09472 -15.58593,0 0,-2.09472 15.58593,0 z"
         id="path4723"
         inkscape:connector-curvature="0" />
      <path
         d="m 667.79565,587.23337 0,2.09472 -15.58593,0 0,-2.09472 15.58593,0 z"
         id="path4725"
         inkscape:connector-curvature="0" />
      <path
         d="m 682.79565,587.23337 0,2.09472 -15.58593,0 0,-2.09472 15.58593,0 z"
         id="path4727"
         inkscape:connector-curvature="0" />
      <path
         d="m 697.79565,587.23337 0,2.09472 -15.58593,0 0,-2.09472 15.58593,0 z"
         id="path4729"
         inkscape:connector-curvature="0" />
      <path
         d="m 712.79565,587.23337 0,2.09472 -15.58593,0 0,-2.09472 15.58593,0 z"
         id="path4731"
         inkscape:connector-curvature="0" />
      <path
         d="m 727.79565,587.23337 0,2.09472 -15.58593,0 0,-2.09472 15.58593,0 z"
         id="path4733"
         inkscape:connector-curvature="0" />
      <path
         d="m 742.79565,587.23337 0,2.09472 -15.58593,0 0,-2.09472 15.58593,0 z"
         id="path4735"
         inkscape:connector-curvature="0" />
      <path
         d="m 757.79565,587.23337 0,2.09472 -15.58593,0 0,-2.09472 15.58593,0 z"
         id="path4737"
         inkscape:connector-curvature="0" />
      <path
         d="m 772.79565,587.23337 0,2.09472 -15.58593,0 0,-2.09472 15.58593,0 z"
         id="path4739"
         inkscape:connector-curvature="0" />
      <path
         d="m 787.79565,587.23337 0,2.09472 -15.58593,0 0,-2.09472 15.58593,0 z"
         id="path4741"
         inkscape:connector-curvature="0" />
      <path
         d="m 802.79565,587.23337 0,2.09472 -15.58593,0 0,-2.09472 15.58593,0 z"
         id="path4743"
         inkscape:connector-curvature="0" />
      <path
         d="m 817.79565,587.23337 0,2.09472 -15.58593,0 0,-2.09472 15.58593,0 z"
         id="path4745"
         inkscape:connector-curvature="0" />
      <path
         d="m 832.79565,587.23337 0,2.09472 -15.58593,0 0,-2.09472 15.58593,0 z"
         id="path4747"
         inkscape:connector-curvature="0" />
      <path
         d="m 847.79565,587.23337 0,2.09472 -15.58593,0 0,-2.09472 15.58593,0 z"
         id="path4749"
         inkscape:connector-curvature="0" />
      <path
         d="m 862.79565,587.23337 0,2.09472 -15.58593,0 0,-2.09472 15.58593,0 z"
         id="path4751"
         inkscape:connector-curvature="0" />
      <path
         d="m 877.79565,587.23337 0,2.09472 -15.58593,0 0,-2.09472 15.58593,0 z"
         id="path4753"
         inkscape:connector-curvature="0" />
      <path
         d="m 892.79565,587.23337 0,2.09472 -15.58593,0 0,-2.09472 15.58593,0 z"
         id="path4755"
         inkscape:connector-curvature="0" />
      <path
         d="m 907.79565,587.23337 0,2.09472 -15.58593,0 0,-2.09472 15.58593,0 z"
         id="path4757"
         inkscape:connector-curvature="0" />
      <path
         d="m 922.79565,587.23337 0,2.09472 -15.58593,0 0,-2.09472 15.58593,0 z"
         id="path4759"
         inkscape:connector-curvature="0" />
      <path
         d="m 937.79565,587.23337 0,2.09472 -15.58593,0 0,-2.09472 15.58593,0 z"
         id="path4761"
         inkscape:connector-curvature="0" />
      <path
         d="m 952.79565,587.23337 0,2.09472 -15.58593,0 0,-2.09472 15.58593,0 z"
         id="path4763"
         inkscape:connector-curvature="0" />
      <path
         d="m 967.79565,587.23337 0,2.09472 -15.58593,0 0,-2.09472 15.58593,0 z"
         id="path4765"
         inkscape:connector-curvature="0" />
      <path
         d="m 982.79565,587.23337 0,2.09472 -15.58593,0 0,-2.09472 15.58593,0 z"
         id="path4767"
         inkscape:connector-curvature="0" />
      <path
         d="m 997.79565,587.23337 0,2.09472 -15.58593,0 0,-2.09472 15.58593,0 z"
         id="path4769"
         inkscape:connector-curvature="0" />
      <path
         d="m 1012.7957,587.23337 0,2.09472 -15.58598,0 0,-2.09472 15.58598,0 z"
         id="path4771"
         inkscape:connector-curvature="0" />
      <path
         d="m 1027.7957,587.23337 0,2.09472 -15.586,0 0,-2.09472 15.586,0 z"
         id="path4773"
         inkscape:connector-curvature="0" />
      <path
         d="m 557.75659,638.29782 -4.01367,10.88379 8.04199,0 -4.02832,-10.88379 z m -1.66992,-2.91504 3.35449,0 8.33496,21.87012 -3.07617,0 -1.99219,-5.61035 -9.85839,0 -1.99219,5.61035 -3.12012,0 8.34961,-21.87012 z m 2.47559,-5.94726 2.70996,0 -3.33985,3.86718 -2.24121,0 2.8711,-3.86718 z"
         id="path4775"
         inkscape:connector-curvature="0" />
      <path
         d="m 570.55933,650.77829 0,-9.93164 2.69531,0 0,9.8291 q 0,2.3291 0.9082,3.50098 0.9082,1.15722 2.72461,1.15722 2.18262,0 3.44238,-1.3916 1.27442,-1.3916 1.27442,-3.79394 l 0,-9.30176 2.69531,0 0,16.40625 -2.69531,0 0,-2.51953 q -0.98145,1.49414 -2.28516,2.22656 -1.28906,0.71777 -3.00293,0.71777 -2.82715,0 -4.29199,-1.75781 -1.46484,-1.75781 -1.46484,-5.1416 z m 6.78222,-10.32715 0,0 z"
         id="path4777"
         inkscape:connector-curvature="0" />
      <path
         d="m 600.67651,643.33688 0,-8.87695 2.69532,0 0,22.79297 -2.69532,0 0,-2.46094 q -0.84961,1.46485 -2.15332,2.18262 -1.28906,0.70312 -3.10547,0.70312 -2.97363,0 -4.84863,-2.37304 -1.86035,-2.37305 -1.86035,-6.24024 0,-3.86718 1.86035,-6.24023 1.875,-2.37305 4.84863,-2.37305 1.81641,0 3.10547,0.71777 1.30371,0.70313 2.15332,2.16797 z m -9.18457,5.72754 q 0,2.97364 1.21582,4.67285 1.23047,1.68457 3.36914,1.68457 2.13868,0 3.36914,-1.68457 1.23047,-1.69921 1.23047,-4.67285 0,-2.97363 -1.23047,-4.6582 -1.23046,-1.69922 -3.36914,-1.69922 -2.13867,0 -3.36914,1.69922 -1.21582,1.68457 -1.21582,4.6582 z"
         id="path4779"
         inkscape:connector-curvature="0" />
      <path
         d="m 608.92358,640.84665 2.69532,0 0,16.40625 -2.69532,0 0,-16.40625 z m 0,-6.38672 2.69532,0 0,3.41309 -2.69532,0 0,-3.41309 z"
         id="path4781"
         inkscape:connector-curvature="0" />
      <path
         d="m 623.60132,642.7363 q -2.16797,0 -3.42774,1.69922 -1.25976,1.68457 -1.25976,4.6289 0,2.94434 1.24512,4.64356 1.25976,1.68457 3.44238,1.68457 2.15332,0 3.41308,-1.69922 1.25977,-1.69922 1.25977,-4.62891 0,-2.91504 -1.25977,-4.61426 -1.25976,-1.71386 -3.41308,-1.71386 z m 0,-2.28516 q 3.51562,0 5.52246,2.28516 2.00684,2.28515 2.00684,6.32812 0,4.02832 -2.00684,6.32813 -2.00684,2.28515 -5.52246,2.28515 -3.53028,0 -5.53711,-2.28515 -1.99219,-2.29981 -1.99219,-6.32813 0,-4.04297 1.99219,-6.32812 2.00683,-2.28516 5.53711,-2.28516 z"
         id="path4783"
         inkscape:connector-curvature="0" />
      <path
         d="m 636.27222,653.5322 3.09082,0 0,3.7207 -3.09082,0 0,-3.7207 z m 0,-11.792 3.09082,0 0,3.72071 -3.09082,0 0,-3.72071 z"
         id="path4785"
         inkscape:connector-curvature="0" />
      <path
         d="m 562.79565,699.73337 0,2.09472 -15.58593,0 0,-2.09472 15.58593,0 z"
         id="path4787"
         inkscape:connector-curvature="0" />
      <path
         d="m 577.79565,699.73337 0,2.09472 -15.58593,0 0,-2.09472 15.58593,0 z"
         id="path4789"
         inkscape:connector-curvature="0" />
      <path
         d="m 592.79565,699.73337 0,2.09472 -15.58593,0 0,-2.09472 15.58593,0 z"
         id="path4791"
         inkscape:connector-curvature="0" />
      <path
         d="m 607.79565,699.73337 0,2.09472 -15.58593,0 0,-2.09472 15.58593,0 z"
         id="path4793"
         inkscape:connector-curvature="0" />
      <path
         d="m 622.79565,699.73337 0,2.09472 -15.58593,0 0,-2.09472 15.58593,0 z"
         id="path4795"
         inkscape:connector-curvature="0" />
      <path
         d="m 637.79565,699.73337 0,2.09472 -15.58593,0 0,-2.09472 15.58593,0 z"
         id="path4797"
         inkscape:connector-curvature="0" />
      <path
         d="m 652.79565,699.73337 0,2.09472 -15.58593,0 0,-2.09472 15.58593,0 z"
         id="path4799"
         inkscape:connector-curvature="0" />
      <path
         d="m 667.79565,699.73337 0,2.09472 -15.58593,0 0,-2.09472 15.58593,0 z"
         id="path4801"
         inkscape:connector-curvature="0" />
      <path
         d="m 682.79565,699.73337 0,2.09472 -15.58593,0 0,-2.09472 15.58593,0 z"
         id="path4803"
         inkscape:connector-curvature="0" />
      <path
         d="m 697.79565,699.73337 0,2.09472 -15.58593,0 0,-2.09472 15.58593,0 z"
         id="path4805"
         inkscape:connector-curvature="0" />
      <path
         d="m 712.79565,699.73337 0,2.09472 -15.58593,0 0,-2.09472 15.58593,0 z"
         id="path4807"
         inkscape:connector-curvature="0" />
      <path
         d="m 727.79565,699.73337 0,2.09472 -15.58593,0 0,-2.09472 15.58593,0 z"
         id="path4809"
         inkscape:connector-curvature="0" />
      <path
         d="m 742.79565,699.73337 0,2.09472 -15.58593,0 0,-2.09472 15.58593,0 z"
         id="path4811"
         inkscape:connector-curvature="0" />
      <path
         d="m 757.79565,699.73337 0,2.09472 -15.58593,0 0,-2.09472 15.58593,0 z"
         id="path4813"
         inkscape:connector-curvature="0" />
      <path
         d="m 772.79565,699.73337 0,2.09472 -15.58593,0 0,-2.09472 15.58593,0 z"
         id="path4815"
         inkscape:connector-curvature="0" />
      <path
         d="m 787.79565,699.73337 0,2.09472 -15.58593,0 0,-2.09472 15.58593,0 z"
         id="path4817"
         inkscape:connector-curvature="0" />
      <path
         d="m 802.79565,699.73337 0,2.09472 -15.58593,0 0,-2.09472 15.58593,0 z"
         id="path4819"
         inkscape:connector-curvature="0" />
      <path
         d="m 817.79565,699.73337 0,2.09472 -15.58593,0 0,-2.09472 15.58593,0 z"
         id="path4821"
         inkscape:connector-curvature="0" />
      <path
         d="m 832.79565,699.73337 0,2.09472 -15.58593,0 0,-2.09472 15.58593,0 z"
         id="path4823"
         inkscape:connector-curvature="0" />
      <path
         d="m 847.79565,699.73337 0,2.09472 -15.58593,0 0,-2.09472 15.58593,0 z"
         id="path4825"
         inkscape:connector-curvature="0" />
      <path
         d="m 862.79565,699.73337 0,2.09472 -15.58593,0 0,-2.09472 15.58593,0 z"
         id="path4827"
         inkscape:connector-curvature="0" />
      <path
         d="m 877.79565,699.73337 0,2.09472 -15.58593,0 0,-2.09472 15.58593,0 z"
         id="path4829"
         inkscape:connector-curvature="0" />
      <path
         d="m 892.79565,699.73337 0,2.09472 -15.58593,0 0,-2.09472 15.58593,0 z"
         id="path4831"
         inkscape:connector-curvature="0" />
      <path
         d="m 907.79565,699.73337 0,2.09472 -15.58593,0 0,-2.09472 15.58593,0 z"
         id="path4833"
         inkscape:connector-curvature="0" />
      <path
         d="m 922.79565,699.73337 0,2.09472 -15.58593,0 0,-2.09472 15.58593,0 z"
         id="path4835"
         inkscape:connector-curvature="0" />
      <path
         d="m 937.79565,699.73337 0,2.09472 -15.58593,0 0,-2.09472 15.58593,0 z"
         id="path4837"
         inkscape:connector-curvature="0" />
      <path
         d="m 952.79565,699.73337 0,2.09472 -15.58593,0 0,-2.09472 15.58593,0 z"
         id="path4839"
         inkscape:connector-curvature="0" />
      <path
         d="m 967.79565,699.73337 0,2.09472 -15.58593,0 0,-2.09472 15.58593,0 z"
         id="path4841"
         inkscape:connector-curvature="0" />
      <path
         d="m 982.79565,699.73337 0,2.09472 -15.58593,0 0,-2.09472 15.58593,0 z"
         id="path4843"
         inkscape:connector-curvature="0" />
      <path
         d="m 997.79565,699.73337 0,2.09472 -15.58593,0 0,-2.09472 15.58593,0 z"
         id="path4845"
         inkscape:connector-curvature="0" />
      <path
         d="m 1012.7957,699.73337 0,2.09472 -15.58598,0 0,-2.09472 15.58598,0 z"
         id="path4847"
         inkscape:connector-curvature="0" />
      <path
         d="m 1027.7957,699.73337 0,2.09472 -15.586,0 0,-2.09472 15.586,0 z"
         id="path4849"
         inkscape:connector-curvature="0" />
      <path
         d="m 550.44702,747.88278 2.95899,0 0,21.87012 -2.95899,0 0,-21.87012 z"
         id="path4851"
         inkscape:connector-curvature="0" />
      <path
         d="m 561.84351,748.68845 0,4.6582 5.55175,0 0,2.09473 -5.55175,0 0,8.90625 q 0,2.00683 0.54199,2.57812 0.55664,0.57129 2.24121,0.57129 l 2.76855,0 0,2.25586 -2.76855,0 q -3.12012,0 -4.30664,-1.15723 -1.18653,-1.17187 -1.18653,-4.24804 l 0,-8.90625 -1.97753,0 0,-2.09473 1.97753,0 0,-4.6582 2.70997,0 z"
         id="path4853"
         inkscape:connector-curvature="0" />
      <path
         d="m 584.98804,760.87595 0,1.31836 -12.39258,0 q 0.17578,2.7832 1.66992,4.24804 1.50879,1.4502 4.18945,1.4502 1.55274,0 3.00293,-0.38086 1.46485,-0.38086 2.90039,-1.14258 l 0,2.54883 q -1.45019,0.61523 -2.97363,0.9375 -1.52344,0.32226 -3.09082,0.32226 -3.92578,0 -6.22558,-2.28515 -2.28516,-2.28516 -2.28516,-6.18164 0,-4.02832 2.16797,-6.38672 2.18261,-2.37305 5.87402,-2.37305 3.31055,0 5.22949,2.13867 1.9336,2.12403 1.9336,5.78614 z m -2.69532,-0.79102 q -0.0293,-2.21191 -1.24511,-3.53027 -1.20117,-1.31836 -3.19336,-1.31836 -2.25586,0 -3.61817,1.27441 -1.34765,1.27442 -1.55273,3.58887 l 9.60937,-0.0146 z"
         id="path4855"
         inkscape:connector-curvature="0" />
      <path
         d="m 603.04956,759.85056 0,9.90234 -2.69531,0 0,-9.81445 q 0,-2.32911 -0.90821,-3.48633 -0.9082,-1.15723 -2.7246,-1.15723 -2.18262,0 -3.44239,1.3916 -1.25976,1.3916 -1.25976,3.79395 l 0,9.27246 -2.70996,0 0,-16.40625 2.70996,0 0,2.54883 q 0.96679,-1.47949 2.2705,-2.21192 1.31836,-0.73242 3.03223,-0.73242 2.82715,0 4.27735,1.75781 1.45019,1.74317 1.45019,5.14161 z"
         id="path4857"
         inkscape:connector-curvature="0" />
      <path
         d="m 618.91382,753.83005 0,2.54883 q -1.14258,-0.58594 -2.37305,-0.87891 -1.23047,-0.29297 -2.54883,-0.29297 -2.00683,0 -3.01757,0.61524 -0.9961,0.61523 -0.9961,1.8457 0,0.9375 0.71777,1.47949 0.71778,0.52734 2.88575,1.01074 l 0.92285,0.20508 q 2.87109,0.61524 4.07226,1.74316 1.21582,1.11329 1.21582,3.12012 0,2.28516 -1.8164,3.61817 -1.80176,1.333 -4.96582,1.333 -1.31836,0 -2.75391,-0.26367 -1.4209,-0.24902 -3.00293,-0.76172 l 0,-2.7832 q 1.49414,0.77637 2.94434,1.17188 1.45019,0.38085 2.87109,0.38085 1.9043,0 2.92969,-0.64453 1.02539,-0.65918 1.02539,-1.8457 0,-1.09863 -0.74707,-1.68457 -0.73242,-0.58594 -3.23731,-1.12793 l -0.9375,-0.21973 q -2.50488,-0.52734 -3.61816,-1.61132 -1.11328,-1.09864 -1.11328,-3.00293 0,-2.31446 1.64062,-3.57422 1.64063,-1.25977 4.65821,-1.25977 1.49414,0 2.8125,0.21973 1.31836,0.21972 2.43164,0.65918 z"
         id="path4859"
         inkscape:connector-curvature="0" />
      <path
         d="m 624.78784,766.0322 3.09082,0 0,3.7207 -3.09082,0 0,-3.7207 z m 0,-11.792 3.09082,0 0,3.72071 -3.09082,0 0,-3.72071 z"
         id="path4861"
         inkscape:connector-curvature="0" />
      <path
         d="m 562.79565,812.23337 0,2.09472 -15.58593,0 0,-2.09472 15.58593,0 z"
         id="path4863"
         inkscape:connector-curvature="0" />
      <path
         d="m 577.79565,812.23337 0,2.09472 -15.58593,0 0,-2.09472 15.58593,0 z"
         id="path4865"
         inkscape:connector-curvature="0" />
      <path
         d="m 592.79565,812.23337 0,2.09472 -15.58593,0 0,-2.09472 15.58593,0 z"
         id="path4867"
         inkscape:connector-curvature="0" />
      <path
         d="m 607.79565,812.23337 0,2.09472 -15.58593,0 0,-2.09472 15.58593,0 z"
         id="path4869"
         inkscape:connector-curvature="0" />
      <path
         d="m 622.79565,812.23337 0,2.09472 -15.58593,0 0,-2.09472 15.58593,0 z"
         id="path4871"
         inkscape:connector-curvature="0" />
      <path
         d="m 637.79565,812.23337 0,2.09472 -15.58593,0 0,-2.09472 15.58593,0 z"
         id="path4873"
         inkscape:connector-curvature="0" />
      <path
         d="m 652.79565,812.23337 0,2.09472 -15.58593,0 0,-2.09472 15.58593,0 z"
         id="path4875"
         inkscape:connector-curvature="0" />
      <path
         d="m 667.79565,812.23337 0,2.09472 -15.58593,0 0,-2.09472 15.58593,0 z"
         id="path4877"
         inkscape:connector-curvature="0" />
      <path
         d="m 682.79565,812.23337 0,2.09472 -15.58593,0 0,-2.09472 15.58593,0 z"
         id="path4879"
         inkscape:connector-curvature="0" />
      <path
         d="m 697.79565,812.23337 0,2.09472 -15.58593,0 0,-2.09472 15.58593,0 z"
         id="path4881"
         inkscape:connector-curvature="0" />
      <path
         d="m 712.79565,812.23337 0,2.09472 -15.58593,0 0,-2.09472 15.58593,0 z"
         id="path4883"
         inkscape:connector-curvature="0" />
      <path
         d="m 727.79565,812.23337 0,2.09472 -15.58593,0 0,-2.09472 15.58593,0 z"
         id="path4885"
         inkscape:connector-curvature="0" />
      <path
         d="m 742.79565,812.23337 0,2.09472 -15.58593,0 0,-2.09472 15.58593,0 z"
         id="path4887"
         inkscape:connector-curvature="0" />
      <path
         d="m 757.79565,812.23337 0,2.09472 -15.58593,0 0,-2.09472 15.58593,0 z"
         id="path4889"
         inkscape:connector-curvature="0" />
      <path
         d="m 772.79565,812.23337 0,2.09472 -15.58593,0 0,-2.09472 15.58593,0 z"
         id="path4891"
         inkscape:connector-curvature="0" />
      <path
         d="m 787.79565,812.23337 0,2.09472 -15.58593,0 0,-2.09472 15.58593,0 z"
         id="path4893"
         inkscape:connector-curvature="0" />
      <path
         d="m 802.79565,812.23337 0,2.09472 -15.58593,0 0,-2.09472 15.58593,0 z"
         id="path4895"
         inkscape:connector-curvature="0" />
      <path
         d="m 817.79565,812.23337 0,2.09472 -15.58593,0 0,-2.09472 15.58593,0 z"
         id="path4897"
         inkscape:connector-curvature="0" />
      <path
         d="m 832.79565,812.23337 0,2.09472 -15.58593,0 0,-2.09472 15.58593,0 z"
         id="path4899"
         inkscape:connector-curvature="0" />
      <path
         d="m 847.79565,812.23337 0,2.09472 -15.58593,0 0,-2.09472 15.58593,0 z"
         id="path4901"
         inkscape:connector-curvature="0" />
      <path
         d="m 862.79565,812.23337 0,2.09472 -15.58593,0 0,-2.09472 15.58593,0 z"
         id="path4903"
         inkscape:connector-curvature="0" />
      <path
         d="m 877.79565,812.23337 0,2.09472 -15.58593,0 0,-2.09472 15.58593,0 z"
         id="path4905"
         inkscape:connector-curvature="0" />
      <path
         d="m 892.79565,812.23337 0,2.09472 -15.58593,0 0,-2.09472 15.58593,0 z"
         id="path4907"
         inkscape:connector-curvature="0" />
      <path
         d="m 907.79565,812.23337 0,2.09472 -15.58593,0 0,-2.09472 15.58593,0 z"
         id="path4909"
         inkscape:connector-curvature="0" />
      <path
         d="m 922.79565,812.23337 0,2.09472 -15.58593,0 0,-2.09472 15.58593,0 z"
         id="path4911"
         inkscape:connector-curvature="0" />
      <path
         d="m 937.79565,812.23337 0,2.09472 -15.58593,0 0,-2.09472 15.58593,0 z"
         id="path4913"
         inkscape:connector-curvature="0" />
      <path
         d="m 952.79565,812.23337 0,2.09472 -15.58593,0 0,-2.09472 15.58593,0 z"
         id="path4915"
         inkscape:connector-curvature="0" />
      <path
         d="m 967.79565,812.23337 0,2.09472 -15.58593,0 0,-2.09472 15.58593,0 z"
         id="path4917"
         inkscape:connector-curvature="0" />
      <path
         d="m 982.79565,812.23337 0,2.09472 -15.58593,0 0,-2.09472 15.58593,0 z"
         id="path4919"
         inkscape:connector-curvature="0" />
      <path
         d="m 997.79565,812.23337 0,2.09472 -15.58593,0 0,-2.09472 15.58593,0 z"
         id="path4921"
         inkscape:connector-curvature="0" />
      <path
         d="m 1012.7957,812.23337 0,2.09472 -15.58598,0 0,-2.09472 15.58598,0 z"
         id="path4923"
         inkscape:connector-curvature="0" />
      <path
         d="m 1027.7957,812.23337 0,2.09472 -15.586,0 0,-2.09472 15.586,0 z"
         id="path4925"
         inkscape:connector-curvature="0" />
      <path
         d="m 563.55737,861.10056 0,2.88574 q -1.68457,-0.80567 -3.17871,-1.20117 -1.49414,-0.39551 -2.88574,-0.39551 -2.41699,0 -3.73535,0.9375 -1.30371,0.9375 -1.30371,2.66601 0,1.4502 0.86426,2.19727 0.8789,0.73242 3.31054,1.18652 l 1.78711,0.36621 q 3.31055,0.62989 4.87793,2.22657 1.58203,1.58203 1.58203,4.24804 0,3.17871 -2.13867,4.81934 -2.12402,1.64062 -6.24023,1.64062 -1.55274,0 -3.31055,-0.35156 -1.74316,-0.35156 -3.61816,-1.04004 l 0,-3.04687 q 1.80175,1.01074 3.53027,1.52343 1.72851,0.5127 3.39844,0.5127 2.53418,0 3.91113,-0.99609 1.37695,-0.9961 1.37695,-2.8418 0,-1.61133 -0.99609,-2.51953 -0.98145,-0.9082 -3.23731,-1.36231 l -1.80175,-0.35156 q -3.31055,-0.65918 -4.79004,-2.06543 -1.4795,-1.40625 -1.4795,-3.91113 0,-2.90039 2.03614,-4.57031 2.05078,-1.66993 5.63965,-1.66993 1.53808,0 3.13476,0.27832 1.59668,0.27832 3.2666,0.83497 z"
         id="path4927"
         inkscape:connector-curvature="0" />
      <path
         d="m 576.82886,874.00583 q -3.2666,0 -4.52637,0.74707 -1.25977,0.74707 -1.25977,2.54883 0,1.43554 0.9375,2.28515 0.95215,0.83496 2.57813,0.83496 2.24121,0 3.58887,-1.58203 1.3623,-1.59668 1.3623,-4.2334 l 0,-0.60058 -2.68066,0 z m 5.37597,-1.11328 0,9.36035 -2.69531,0 0,-2.49024 q -0.92285,1.49415 -2.2998,2.21192 -1.37696,0.70312 -3.36914,0.70312 -2.51954,0 -4.01368,-1.40625 -1.47949,-1.42089 -1.47949,-3.79394 0,-2.76856 1.84571,-4.17481 1.86035,-1.40625 5.5371,-1.40625 l 3.7793,0 0,-0.26367 q 0,-1.86035 -1.23047,-2.87109 -1.21582,-1.02539 -3.42773,-1.02539 -1.40625,0 -2.73926,0.33691 -1.33301,0.33692 -2.56348,1.01074 l 0,-2.49023 q 1.4795,-0.57129 2.8711,-0.84961 1.3916,-0.29297 2.70996,-0.29297 3.55957,0 5.31738,1.8457 1.75781,1.84571 1.75781,5.59571 z"
         id="path4929"
         inkscape:connector-curvature="0" />
      <path
         d="m 591.15503,858.25876 2.91504,0 -4.77539,5.50781 -2.24121,0 4.10156,-5.50781 z m -3.38379,7.58789 2.69531,0 0,16.40625 -2.69531,0 0,-16.40625 z m 1.34766,-0.39551 0,0 z"
         id="path4931"
         inkscape:connector-curvature="0" />
      <path
         d="m 606.88745,868.33688 0,-8.87695 2.69531,0 0,22.79297 -2.69531,0 0,-2.46094 q -0.84961,1.46485 -2.15332,2.18262 -1.28906,0.70312 -3.10547,0.70312 -2.97363,0 -4.84863,-2.37304 -1.86035,-2.37305 -1.86035,-6.24024 0,-3.86718 1.86035,-6.24023 1.875,-2.37305 4.84863,-2.37305 1.81641,0 3.10547,0.71777 1.30371,0.70313 2.15332,2.16797 z m -9.18457,5.72754 q 0,2.97364 1.21582,4.67285 1.23047,1.68457 3.36914,1.68457 2.13867,0 3.36914,-1.68457 1.23047,-1.69921 1.23047,-4.67285 0,-2.97363 -1.23047,-4.6582 -1.23047,-1.69922 -3.36914,-1.69922 -2.13867,0 -3.36914,1.69922 -1.21582,1.68457 -1.21582,4.6582 z"
         id="path4933"
         inkscape:connector-curvature="0" />
      <path
         d="m 622.59058,874.00583 q -3.26661,0 -4.52637,0.74707 -1.25977,0.74707 -1.25977,2.54883 0,1.43554 0.9375,2.28515 0.95215,0.83496 2.57813,0.83496 2.24121,0 3.58887,-1.58203 1.3623,-1.59668 1.3623,-4.2334 l 0,-0.60058 -2.68066,0 z m 5.37597,-1.11328 0,9.36035 -2.69531,0 0,-2.49024 q -0.92285,1.49415 -2.2998,2.21192 -1.37696,0.70312 -3.36915,0.70312 -2.51953,0 -4.01367,-1.40625 -1.47949,-1.42089 -1.47949,-3.79394 0,-2.76856 1.8457,-4.17481 1.86036,-1.40625 5.53711,-1.40625 l 3.7793,0 0,-0.26367 q 0,-1.86035 -1.23047,-2.87109 -1.21582,-1.02539 -3.42773,-1.02539 -1.40625,0 -2.73926,0.33691 -1.33301,0.33692 -2.56348,1.01074 l 0,-2.49023 q 1.47949,-0.57129 2.8711,-0.84961 1.3916,-0.29297 2.70996,-0.29297 3.55957,0 5.31738,1.8457 1.75781,1.84571 1.75781,5.59571 z"
         id="path4935"
         inkscape:connector-curvature="0" />
      <path
         d="m 643.99194,866.33005 0,2.54883 q -1.14257,-0.58594 -2.37304,-0.87891 -1.23047,-0.29297 -2.54883,-0.29297 -2.00684,0 -3.01758,0.61524 -0.99609,0.61523 -0.99609,1.8457 0,0.9375 0.71777,1.47949 0.71777,0.52734 2.88574,1.01074 l 0.92285,0.20508 q 2.8711,0.61524 4.07227,1.74316 1.21582,1.11329 1.21582,3.12012 0,2.28516 -1.81641,3.61817 -1.80175,1.333 -4.96582,1.333 -1.31836,0 -2.7539,-0.26367 -1.4209,-0.24902 -3.00293,-0.76172 l 0,-2.7832 q 1.49414,0.77637 2.94433,1.17188 1.4502,0.38085 2.8711,0.38085 1.90429,0 2.92968,-0.64453 1.02539,-0.65918 1.02539,-1.8457 0,-1.09863 -0.74707,-1.68457 -0.73242,-0.58594 -3.2373,-1.12793 l -0.9375,-0.21973 q -2.50488,-0.52734 -3.61816,-1.61132 -1.11329,-1.09864 -1.11329,-3.00293 0,-2.31446 1.64063,-3.57422 1.64062,-1.25977 4.6582,-1.25977 1.49414,0 2.8125,0.21973 1.31836,0.21972 2.43164,0.65918 z"
         id="path4937"
         inkscape:connector-curvature="0" />
      <path
         d="m 672.76147,873.37595 0,1.31836 -12.39257,0 q 0.17578,2.7832 1.66992,4.24804 1.50879,1.4502 4.18945,1.4502 1.55274,0 3.00293,-0.38086 1.46484,-0.38086 2.90039,-1.14258 l 0,2.54883 q -1.45019,0.61523 -2.97363,0.9375 -1.52344,0.32226 -3.09082,0.32226 -3.92578,0 -6.22559,-2.28515 -2.28515,-2.28516 -2.28515,-6.18164 0,-4.02832 2.16797,-6.38672 2.18261,-2.37305 5.87402,-2.37305 3.31055,0 5.22949,2.13867 1.93359,2.12403 1.93359,5.78614 z m -2.69531,-0.79102 q -0.0293,-2.21191 -1.24512,-3.53027 -1.20117,-1.31836 -3.19335,-1.31836 -2.25586,0 -3.61817,1.27441 -1.34765,1.27442 -1.55273,3.58887 l 9.60937,-0.0146 z"
         id="path4939"
         inkscape:connector-curvature="0" />
      <path
         d="m 686.85327,860.38278 13.82813,0 0,2.49024 -10.86914,0 0,6.47461 10.41503,0 0,2.49023 -10.41503,0 0,7.9248 11.13281,0 0,2.49024 -14.0918,0 0,-21.87012 z"
         id="path4941"
         inkscape:connector-curvature="0" />
      <path
         d="m 719.35815,872.35056 0,9.90234 -2.69531,0 0,-9.81445 q 0,-2.32911 -0.9082,-3.48633 -0.9082,-1.15723 -2.72461,-1.15723 -2.18262,0 -3.44238,1.3916 -1.25977,1.3916 -1.25977,3.79395 l 0,9.27246 -2.70996,0 0,-16.40625 2.70996,0 0,2.54883 q 0.9668,-1.47949 2.27051,-2.21192 1.31836,-0.73242 3.03223,-0.73242 2.82714,0 4.27734,1.75781 1.45019,1.74317 1.45019,5.14161 z"
         id="path4943"
         inkscape:connector-curvature="0" />
      <path
         d="m 727.42944,861.18845 0,4.6582 5.55176,0 0,2.09473 -5.55176,0 0,8.90625 q 0,2.00683 0.542,2.57812 0.55664,0.57129 2.24121,0.57129 l 2.76855,0 0,2.25586 -2.76855,0 q -3.12012,0 -4.30664,-1.15723 -1.18653,-1.17187 -1.18653,-4.24804 l 0,-8.90625 -1.97754,0 0,-2.09473 1.97754,0 0,-4.6582 2.70996,0 z"
         id="path4945"
         inkscape:connector-curvature="0" />
      <path
         d="m 746.04761,868.36618 q -0.4541,-0.26367 -0.9961,-0.38086 -0.52734,-0.13183 -1.17187,-0.13183 -2.28516,0 -3.51563,1.49414 -1.21582,1.47949 -1.21582,4.26269 l 0,8.64258 -2.70996,0 0,-16.40625 2.70996,0 0,2.54883 q 0.84961,-1.49414 2.21192,-2.21192 1.3623,-0.73242 3.31054,-0.73242 0.27832,0 0.61524,0.0439 0.33691,0.0293 0.74707,0.10254 l 0.0146,2.76855 z"
         id="path4947"
         inkscape:connector-curvature="0" />
      <path
         d="m 756.36011,874.00583 q -3.2666,0 -4.52637,0.74707 -1.25977,0.74707 -1.25977,2.54883 0,1.43554 0.9375,2.28515 0.95215,0.83496 2.57813,0.83496 2.24121,0 3.58887,-1.58203 1.3623,-1.59668 1.3623,-4.2334 l 0,-0.60058 -2.68066,0 z m 5.37597,-1.11328 0,9.36035 -2.69531,0 0,-2.49024 q -0.92285,1.49415 -2.2998,2.21192 -1.37696,0.70312 -3.36914,0.70312 -2.51954,0 -4.01368,-1.40625 -1.47949,-1.42089 -1.47949,-3.79394 0,-2.76856 1.84571,-4.17481 1.86035,-1.40625 5.5371,-1.40625 l 3.7793,0 0,-0.26367 q 0,-1.86035 -1.23047,-2.87109 -1.21582,-1.02539 -3.42773,-1.02539 -1.40625,0 -2.73926,0.33691 -1.33301,0.33692 -2.56348,1.01074 l 0,-2.49023 q 1.4795,-0.57129 2.8711,-0.84961 1.3916,-0.29297 2.70996,-0.29297 3.55957,0 5.31738,1.8457 1.75781,1.84571 1.75781,5.59571 z"
         id="path4949"
         inkscape:connector-curvature="0" />
      <path
         d="m 778.09839,868.33688 0,-8.87695 2.69531,0 0,22.79297 -2.69531,0 0,-2.46094 q -0.84961,1.46485 -2.15332,2.18262 -1.28906,0.70312 -3.10547,0.70312 -2.97363,0 -4.84863,-2.37304 -1.86035,-2.37305 -1.86035,-6.24024 0,-3.86718 1.86035,-6.24023 1.875,-2.37305 4.84863,-2.37305 1.81641,0 3.10547,0.71777 1.30371,0.70313 2.15332,2.16797 z m -9.18457,5.72754 q 0,2.97364 1.21582,4.67285 1.23047,1.68457 3.36914,1.68457 2.13867,0 3.36914,-1.68457 1.23047,-1.69921 1.23047,-4.67285 0,-2.97363 -1.23047,-4.6582 -1.23047,-1.69922 -3.36914,-1.69922 -2.13867,0 -3.36914,1.69922 -1.21582,1.68457 -1.21582,4.6582 z"
         id="path4951"
         inkscape:connector-curvature="0" />
      <path
         d="m 793.80151,874.00583 q -3.2666,0 -4.52636,0.74707 -1.25977,0.74707 -1.25977,2.54883 0,1.43554 0.9375,2.28515 0.95215,0.83496 2.57813,0.83496 2.24121,0 3.58886,-1.58203 1.36231,-1.59668 1.36231,-4.2334 l 0,-0.60058 -2.68067,0 z m 5.37598,-1.11328 0,9.36035 -2.69531,0 0,-2.49024 q -0.92285,1.49415 -2.29981,2.21192 -1.37695,0.70312 -3.36914,0.70312 -2.51953,0 -4.01367,-1.40625 -1.47949,-1.42089 -1.47949,-3.79394 0,-2.76856 1.8457,-4.17481 1.86035,-1.40625 5.53711,-1.40625 l 3.7793,0 0,-0.26367 q 0,-1.86035 -1.23047,-2.87109 -1.21582,-1.02539 -3.42774,-1.02539 -1.40625,0 -2.73925,0.33691 -1.33301,0.33692 -2.56348,1.01074 l 0,-2.49023 q 1.47949,-0.57129 2.87109,-0.84961 1.39161,-0.29297 2.70996,-0.29297 3.55958,0 5.31739,1.8457 1.75781,1.84571 1.75781,5.59571 z"
         id="path4953"
         inkscape:connector-curvature="0" />
      <path
         d="m 815.20288,866.33005 0,2.54883 q -1.14258,-0.58594 -2.37305,-0.87891 -1.23046,-0.29297 -2.54882,-0.29297 -2.00684,0 -3.01758,0.61524 -0.9961,0.61523 -0.9961,1.8457 0,0.9375 0.71778,1.47949 0.71777,0.52734 2.88574,1.01074 l 0.92285,0.20508 q 2.87109,0.61524 4.07227,1.74316 1.21582,1.11329 1.21582,3.12012 0,2.28516 -1.81641,3.61817 -1.80176,1.333 -4.96582,1.333 -1.31836,0 -2.75391,-0.26367 -1.42089,-0.24902 -3.00293,-0.76172 l 0,-2.7832 q 1.49415,0.77637 2.94434,1.17188 1.4502,0.38085 2.87109,0.38085 1.9043,0 2.92969,-0.64453 1.02539,-0.65918 1.02539,-1.8457 0,-1.09863 -0.74707,-1.68457 -0.73242,-0.58594 -3.2373,-1.12793 l -0.9375,-0.21973 q -2.50489,-0.52734 -3.61817,-1.61132 -1.11328,-1.09864 -1.11328,-3.00293 0,-2.31446 1.64063,-3.57422 1.64062,-1.25977 4.6582,-1.25977 1.49414,0 2.8125,0.21973 1.31836,0.21972 2.43164,0.65918 z"
         id="path4955"
         inkscape:connector-curvature="0" />
      <path
         d="m 821.0769,878.5322 3.09082,0 0,3.7207 -3.09082,0 0,-3.7207 z m 0,-11.792 3.09082,0 0,3.72071 -3.09082,0 0,-3.72071 z"
         id="path4957"
         inkscape:connector-curvature="0" />
      <path
         d="m 562.79565,924.73337 0,2.09472 -15.58593,0 0,-2.09472 15.58593,0 z"
         id="path4959"
         inkscape:connector-curvature="0" />
      <path
         d="m 577.79565,924.73337 0,2.09472 -15.58593,0 0,-2.09472 15.58593,0 z"
         id="path4961"
         inkscape:connector-curvature="0" />
      <path
         d="m 592.79565,924.73337 0,2.09472 -15.58593,0 0,-2.09472 15.58593,0 z"
         id="path4963"
         inkscape:connector-curvature="0" />
      <path
         d="m 607.79565,924.73337 0,2.09472 -15.58593,0 0,-2.09472 15.58593,0 z"
         id="path4965"
         inkscape:connector-curvature="0" />
      <path
         d="m 622.79565,924.73337 0,2.09472 -15.58593,0 0,-2.09472 15.58593,0 z"
         id="path4967"
         inkscape:connector-curvature="0" />
      <path
         d="m 637.79565,924.73337 0,2.09472 -15.58593,0 0,-2.09472 15.58593,0 z"
         id="path4969"
         inkscape:connector-curvature="0" />
      <path
         d="m 652.79565,924.73337 0,2.09472 -15.58593,0 0,-2.09472 15.58593,0 z"
         id="path4971"
         inkscape:connector-curvature="0" />
      <path
         d="m 667.79565,924.73337 0,2.09472 -15.58593,0 0,-2.09472 15.58593,0 z"
         id="path4973"
         inkscape:connector-curvature="0" />
      <path
         d="m 682.79565,924.73337 0,2.09472 -15.58593,0 0,-2.09472 15.58593,0 z"
         id="path4975"
         inkscape:connector-curvature="0" />
      <path
         d="m 697.79565,924.73337 0,2.09472 -15.58593,0 0,-2.09472 15.58593,0 z"
         id="path4977"
         inkscape:connector-curvature="0" />
      <path
         d="m 712.79565,924.73337 0,2.09472 -15.58593,0 0,-2.09472 15.58593,0 z"
         id="path4979"
         inkscape:connector-curvature="0" />
      <path
         d="m 727.79565,924.73337 0,2.09472 -15.58593,0 0,-2.09472 15.58593,0 z"
         id="path4981"
         inkscape:connector-curvature="0" />
      <path
         d="m 742.79565,924.73337 0,2.09472 -15.58593,0 0,-2.09472 15.58593,0 z"
         id="path4983"
         inkscape:connector-curvature="0" />
      <path
         d="m 757.79565,924.73337 0,2.09472 -15.58593,0 0,-2.09472 15.58593,0 z"
         id="path4985"
         inkscape:connector-curvature="0" />
      <path
         d="m 772.79565,924.73337 0,2.09472 -15.58593,0 0,-2.09472 15.58593,0 z"
         id="path4987"
         inkscape:connector-curvature="0" />
      <path
         d="m 787.79565,924.73337 0,2.09472 -15.58593,0 0,-2.09472 15.58593,0 z"
         id="path4989"
         inkscape:connector-curvature="0" />
      <path
         d="m 802.79565,924.73337 0,2.09472 -15.58593,0 0,-2.09472 15.58593,0 z"
         id="path4991"
         inkscape:connector-curvature="0" />
      <path
         d="m 817.79565,924.73337 0,2.09472 -15.58593,0 0,-2.09472 15.58593,0 z"
         id="path4993"
         inkscape:connector-curvature="0" />
      <path
         d="m 832.79565,924.73337 0,2.09472 -15.58593,0 0,-2.09472 15.58593,0 z"
         id="path4995"
         inkscape:connector-curvature="0" />
      <path
         d="m 847.79565,924.73337 0,2.09472 -15.58593,0 0,-2.09472 15.58593,0 z"
         id="path4997"
         inkscape:connector-curvature="0" />
      <path
         d="m 862.79565,924.73337 0,2.09472 -15.58593,0 0,-2.09472 15.58593,0 z"
         id="path4999"
         inkscape:connector-curvature="0" />
      <path
         d="m 877.79565,924.73337 0,2.09472 -15.58593,0 0,-2.09472 15.58593,0 z"
         id="path5001"
         inkscape:connector-curvature="0" />
      <path
         d="m 892.79565,924.73337 0,2.09472 -15.58593,0 0,-2.09472 15.58593,0 z"
         id="path5003"
         inkscape:connector-curvature="0" />
      <path
         d="m 907.79565,924.73337 0,2.09472 -15.58593,0 0,-2.09472 15.58593,0 z"
         id="path5005"
         inkscape:connector-curvature="0" />
      <path
         d="m 922.79565,924.73337 0,2.09472 -15.58593,0 0,-2.09472 15.58593,0 z"
         id="path5007"
         inkscape:connector-curvature="0" />
      <path
         d="m 937.79565,924.73337 0,2.09472 -15.58593,0 0,-2.09472 15.58593,0 z"
         id="path5009"
         inkscape:connector-curvature="0" />
      <path
         d="m 952.79565,924.73337 0,2.09472 -15.58593,0 0,-2.09472 15.58593,0 z"
         id="path5011"
         inkscape:connector-curvature="0" />
      <path
         d="m 967.79565,924.73337 0,2.09472 -15.58593,0 0,-2.09472 15.58593,0 z"
         id="path5013"
         inkscape:connector-curvature="0" />
      <path
         d="m 982.79565,924.73337 0,2.09472 -15.58593,0 0,-2.09472 15.58593,0 z"
         id="path5015"
         inkscape:connector-curvature="0" />
      <path
         d="m 997.79565,924.73337 0,2.09472 -15.58593,0 0,-2.09472 15.58593,0 z"
         id="path5017"
         inkscape:connector-curvature="0" />
      <path
         d="m 1012.7957,924.73337 0,2.09472 -15.58598,0 0,-2.09472 15.58598,0 z"
         id="path5019"
         inkscape:connector-curvature="0" />
      <path
         d="m 1027.7957,924.73337 0,2.09472 -15.586,0 0,-2.09472 15.586,0 z"
         id="path5021"
         inkscape:connector-curvature="0" />
      <path
         d="m 562.79565,962.23337 0,2.09472 -15.58593,0 0,-2.09472 15.58593,0 z"
         id="path5023"
         inkscape:connector-curvature="0" />
      <path
         d="m 577.79565,962.23337 0,2.09472 -15.58593,0 0,-2.09472 15.58593,0 z"
         id="path5025"
         inkscape:connector-curvature="0" />
      <path
         d="m 592.79565,962.23337 0,2.09472 -15.58593,0 0,-2.09472 15.58593,0 z"
         id="path5027"
         inkscape:connector-curvature="0" />
      <path
         d="m 607.79565,962.23337 0,2.09472 -15.58593,0 0,-2.09472 15.58593,0 z"
         id="path5029"
         inkscape:connector-curvature="0" />
      <path
         d="m 622.79565,962.23337 0,2.09472 -15.58593,0 0,-2.09472 15.58593,0 z"
         id="path5031"
         inkscape:connector-curvature="0" />
      <path
         d="m 637.79565,962.23337 0,2.09472 -15.58593,0 0,-2.09472 15.58593,0 z"
         id="path5033"
         inkscape:connector-curvature="0" />
      <path
         d="m 652.79565,962.23337 0,2.09472 -15.58593,0 0,-2.09472 15.58593,0 z"
         id="path5035"
         inkscape:connector-curvature="0" />
      <path
         d="m 667.79565,962.23337 0,2.09472 -15.58593,0 0,-2.09472 15.58593,0 z"
         id="path5037"
         inkscape:connector-curvature="0" />
      <path
         d="m 682.79565,962.23337 0,2.09472 -15.58593,0 0,-2.09472 15.58593,0 z"
         id="path5039"
         inkscape:connector-curvature="0" />
      <path
         d="m 697.79565,962.23337 0,2.09472 -15.58593,0 0,-2.09472 15.58593,0 z"
         id="path5041"
         inkscape:connector-curvature="0" />
      <path
         d="m 712.79565,962.23337 0,2.09472 -15.58593,0 0,-2.09472 15.58593,0 z"
         id="path5043"
         inkscape:connector-curvature="0" />
      <path
         d="m 727.79565,962.23337 0,2.09472 -15.58593,0 0,-2.09472 15.58593,0 z"
         id="path5045"
         inkscape:connector-curvature="0" />
      <path
         d="m 742.79565,962.23337 0,2.09472 -15.58593,0 0,-2.09472 15.58593,0 z"
         id="path5047"
         inkscape:connector-curvature="0" />
      <path
         d="m 757.79565,962.23337 0,2.09472 -15.58593,0 0,-2.09472 15.58593,0 z"
         id="path5049"
         inkscape:connector-curvature="0" />
      <path
         d="m 772.79565,962.23337 0,2.09472 -15.58593,0 0,-2.09472 15.58593,0 z"
         id="path5051"
         inkscape:connector-curvature="0" />
      <path
         d="m 787.79565,962.23337 0,2.09472 -15.58593,0 0,-2.09472 15.58593,0 z"
         id="path5053"
         inkscape:connector-curvature="0" />
      <path
         d="m 802.79565,962.23337 0,2.09472 -15.58593,0 0,-2.09472 15.58593,0 z"
         id="path5055"
         inkscape:connector-curvature="0" />
      <path
         d="m 817.79565,962.23337 0,2.09472 -15.58593,0 0,-2.09472 15.58593,0 z"
         id="path5057"
         inkscape:connector-curvature="0" />
      <path
         d="m 832.79565,962.23337 0,2.09472 -15.58593,0 0,-2.09472 15.58593,0 z"
         id="path5059"
         inkscape:connector-curvature="0" />
      <path
         d="m 847.79565,962.23337 0,2.09472 -15.58593,0 0,-2.09472 15.58593,0 z"
         id="path5061"
         inkscape:connector-curvature="0" />
      <path
         d="m 862.79565,962.23337 0,2.09472 -15.58593,0 0,-2.09472 15.58593,0 z"
         id="path5063"
         inkscape:connector-curvature="0" />
      <path
         d="m 877.79565,962.23337 0,2.09472 -15.58593,0 0,-2.09472 15.58593,0 z"
         id="path5065"
         inkscape:connector-curvature="0" />
      <path
         d="m 892.79565,962.23337 0,2.09472 -15.58593,0 0,-2.09472 15.58593,0 z"
         id="path5067"
         inkscape:connector-curvature="0" />
      <path
         d="m 907.79565,962.23337 0,2.09472 -15.58593,0 0,-2.09472 15.58593,0 z"
         id="path5069"
         inkscape:connector-curvature="0" />
      <path
         d="m 922.79565,962.23337 0,2.09472 -15.58593,0 0,-2.09472 15.58593,0 z"
         id="path5071"
         inkscape:connector-curvature="0" />
      <path
         d="m 937.79565,962.23337 0,2.09472 -15.58593,0 0,-2.09472 15.58593,0 z"
         id="path5073"
         inkscape:connector-curvature="0" />
      <path
         d="m 952.79565,962.23337 0,2.09472 -15.58593,0 0,-2.09472 15.58593,0 z"
         id="path5075"
         inkscape:connector-curvature="0" />
      <path
         d="m 967.79565,962.23337 0,2.09472 -15.58593,0 0,-2.09472 15.58593,0 z"
         id="path5077"
         inkscape:connector-curvature="0" />
      <path
         d="m 982.79565,962.23337 0,2.09472 -15.58593,0 0,-2.09472 15.58593,0 z"
         id="path5079"
         inkscape:connector-curvature="0" />
      <path
         d="m 997.79565,962.23337 0,2.09472 -15.58593,0 0,-2.09472 15.58593,0 z"
         id="path5081"
         inkscape:connector-curvature="0" />
      <path
         d="m 1012.7957,962.23337 0,2.09472 -15.58598,0 0,-2.09472 15.58598,0 z"
         id="path5083"
         inkscape:connector-curvature="0" />
      <path
         d="m 1027.7957,962.23337 0,2.09472 -15.586,0 0,-2.09472 15.586,0 z"
         id="path5085"
         inkscape:connector-curvature="0" />
      <path
         d="m 562.79565,999.73337 0,2.09473 -15.58593,0 0,-2.09473 15.58593,0 z"
         id="path5087"
         inkscape:connector-curvature="0" />
      <path
         d="m 577.79565,999.73337 0,2.09473 -15.58593,0 0,-2.09473 15.58593,0 z"
         id="path5089"
         inkscape:connector-curvature="0" />
      <path
         d="m 592.79565,999.73337 0,2.09473 -15.58593,0 0,-2.09473 15.58593,0 z"
         id="path5091"
         inkscape:connector-curvature="0" />
      <path
         d="m 607.79565,999.73337 0,2.09473 -15.58593,0 0,-2.09473 15.58593,0 z"
         id="path5093"
         inkscape:connector-curvature="0" />
      <path
         d="m 622.79565,999.73337 0,2.09473 -15.58593,0 0,-2.09473 15.58593,0 z"
         id="path5095"
         inkscape:connector-curvature="0" />
      <path
         d="m 637.79565,999.73337 0,2.09473 -15.58593,0 0,-2.09473 15.58593,0 z"
         id="path5097"
         inkscape:connector-curvature="0" />
      <path
         d="m 652.79565,999.73337 0,2.09473 -15.58593,0 0,-2.09473 15.58593,0 z"
         id="path5099"
         inkscape:connector-curvature="0" />
      <path
         d="m 667.79565,999.73337 0,2.09473 -15.58593,0 0,-2.09473 15.58593,0 z"
         id="path5101"
         inkscape:connector-curvature="0" />
      <path
         d="m 682.79565,999.73337 0,2.09473 -15.58593,0 0,-2.09473 15.58593,0 z"
         id="path5103"
         inkscape:connector-curvature="0" />
      <path
         d="m 697.79565,999.73337 0,2.09473 -15.58593,0 0,-2.09473 15.58593,0 z"
         id="path5105"
         inkscape:connector-curvature="0" />
      <path
         d="m 712.79565,999.73337 0,2.09473 -15.58593,0 0,-2.09473 15.58593,0 z"
         id="path5107"
         inkscape:connector-curvature="0" />
      <path
         d="m 727.79565,999.73337 0,2.09473 -15.58593,0 0,-2.09473 15.58593,0 z"
         id="path5109"
         inkscape:connector-curvature="0" />
      <path
         d="m 742.79565,999.73337 0,2.09473 -15.58593,0 0,-2.09473 15.58593,0 z"
         id="path5111"
         inkscape:connector-curvature="0" />
      <path
         d="m 757.79565,999.73337 0,2.09473 -15.58593,0 0,-2.09473 15.58593,0 z"
         id="path5113"
         inkscape:connector-curvature="0" />
      <path
         d="m 772.79565,999.73337 0,2.09473 -15.58593,0 0,-2.09473 15.58593,0 z"
         id="path5115"
         inkscape:connector-curvature="0" />
      <path
         d="m 787.79565,999.73337 0,2.09473 -15.58593,0 0,-2.09473 15.58593,0 z"
         id="path5117"
         inkscape:connector-curvature="0" />
      <path
         d="m 802.79565,999.73337 0,2.09473 -15.58593,0 0,-2.09473 15.58593,0 z"
         id="path5119"
         inkscape:connector-curvature="0" />
      <path
         d="m 817.79565,999.73337 0,2.09473 -15.58593,0 0,-2.09473 15.58593,0 z"
         id="path5121"
         inkscape:connector-curvature="0" />
      <path
         d="m 832.79565,999.73337 0,2.09473 -15.58593,0 0,-2.09473 15.58593,0 z"
         id="path5123"
         inkscape:connector-curvature="0" />
      <path
         d="m 847.79565,999.73337 0,2.09473 -15.58593,0 0,-2.09473 15.58593,0 z"
         id="path5125"
         inkscape:connector-curvature="0" />
      <path
         d="m 862.79565,999.73337 0,2.09473 -15.58593,0 0,-2.09473 15.58593,0 z"
         id="path5127"
         inkscape:connector-curvature="0" />
      <path
         d="m 877.79565,999.73337 0,2.09473 -15.58593,0 0,-2.09473 15.58593,0 z"
         id="path5129"
         inkscape:connector-curvature="0" />
      <path
         d="m 892.79565,999.73337 0,2.09473 -15.58593,0 0,-2.09473 15.58593,0 z"
         id="path5131"
         inkscape:connector-curvature="0" />
      <path
         d="m 907.79565,999.73337 0,2.09473 -15.58593,0 0,-2.09473 15.58593,0 z"
         id="path5133"
         inkscape:connector-curvature="0" />
      <path
         d="m 922.79565,999.73337 0,2.09473 -15.58593,0 0,-2.09473 15.58593,0 z"
         id="path5135"
         inkscape:connector-curvature="0" />
      <path
         d="m 937.79565,999.73337 0,2.09473 -15.58593,0 0,-2.09473 15.58593,0 z"
         id="path5137"
         inkscape:connector-curvature="0" />
      <path
         d="m 952.79565,999.73337 0,2.09473 -15.58593,0 0,-2.09473 15.58593,0 z"
         id="path5139"
         inkscape:connector-curvature="0" />
      <path
         d="m 967.79565,999.73337 0,2.09473 -15.58593,0 0,-2.09473 15.58593,0 z"
         id="path5141"
         inkscape:connector-curvature="0" />
      <path
         d="m 982.79565,999.73337 0,2.09473 -15.58593,0 0,-2.09473 15.58593,0 z"
         id="path5143"
         inkscape:connector-curvature="0" />
      <path
         d="m 997.79565,999.73337 0,2.09473 -15.58593,0 0,-2.09473 15.58593,0 z"
         id="path5145"
         inkscape:connector-curvature="0" />
      <path
         d="m 1012.7957,999.73337 0,2.09473 -15.58598,0 0,-2.09473 15.58598,0 z"
         id="path5147"
         inkscape:connector-curvature="0" />
      <path
         d="m 1027.7957,999.73337 0,2.09473 -15.586,0 0,-2.09473 15.586,0 z"
         id="path5149"
         inkscape:connector-curvature="0" />
    </g>
    <rect
       style="fill:#ececec;fill-opacity:1"
       id="rect4256"
       width="80.358749"
       height="77.982704"
       x="25.681192"
       y="552.92462" />
    <rect
       style="fill:#ececec;fill-opacity:1"
       id="rect4256-3"
       width="80.358749"
       height="77.982704"
       x="274.63501"
       y="552.92462" />
    <rect
       style="fill:#ececec;fill-opacity:1"
       id="rect4256-3-5"
       width="80.358749"
       height="77.982704"
       x="25.681192"
       y="795.52179" />
    <rect
       style="fill:#ececec;fill-opacity:1"
       id="rect4256-3-5-6"
       width="80.358749"
       height="77.982704"
       x="274.63501"
       y="795.52179" />
    <rect
       style="fill:none;fill-opacity:1;stroke:#808080;stroke-width:25.30971527;stroke-linejoin:miter;stroke-miterlimit:4;stroke-dasharray:none;stroke-opacity:1"
       id="rect4218"
       width="329.31256"
       height="320.5799"
       x="25.681192"
       y="552.92462" />
    <rect
       style="fill:#ececec;fill-opacity:1;stroke:none"
       id="rect4305"
       width="302.03098"
       height="9.9668388"
       x="39.321983"
       y="733.42334" />
    <rect
       style="fill:#ececec;fill-opacity:1;stroke:none"
       id="rect4305-2"
       width="302.03098"
       height="9.9668388"
       x="39.321983"
       y="675.75812" />
    <rect
       style="fill:#ececec;fill-opacity:1;stroke:none"
       id="rect4305-2-9"
       width="302.03098"
       height="9.9668388"
       x="39.321987"
       y="651.55292" />
    <g
       style="font-style:normal;font-weight:normal;font-size:40px;line-height:125%;font-family:sans-serif;letter-spacing:0px;word-spacing:0px;fill:#ffffff;fill-opacity:1;stroke:none;stroke-width:1px;stroke-linecap:butt;stroke-linejoin:miter;stroke-opacity:1"
       id="text4339"
       transform="matrix(0.72395988,0,0,0.70476195,0,310.69738)">
      <path
         d="m 231.70267,332.76712 0,3.35938 q -1.52344,-0.83985 -3.06641,-1.25 -1.52344,-0.42969 -3.08594,-0.42969 -3.49609,0 -5.42968,2.22656 -1.9336,2.20703 -1.9336,6.21094 0,4.0039 1.9336,6.23047 1.93359,2.20703 5.42968,2.20703 1.5625,0 3.08594,-0.41016 1.54297,-0.42969 3.06641,-1.26953 l 0,3.32031 q -1.50391,0.70313 -3.125,1.05469 -1.60157,0.35156 -3.41797,0.35156 -4.94141,0 -7.85156,-3.10547 -2.91016,-3.10546 -2.91016,-8.3789 0,-5.35156 2.92969,-8.41797 2.94922,-3.06641 8.0664,-3.06641 1.66016,0 3.24219,0.35157 1.58203,0.33203 3.06641,1.01562 z"
         id="path4424"
         inkscape:connector-curvature="0" />
      <path
         d="m 256.70267,341.96634 0,1.75781 -16.52344,0 q 0.23437,3.71094 2.22656,5.66406 2.01172,1.9336 5.58594,1.9336 2.07031,0 4.00391,-0.50781 1.95312,-0.50782 3.86718,-1.52344 l 0,3.39844 q -1.93359,0.82031 -3.96484,1.25 -2.03125,0.42968 -4.12109,0.42968 -5.23438,0 -8.30079,-3.04687 -3.04687,-3.04688 -3.04687,-8.24219 0,-5.37109 2.89062,-8.51562 2.91016,-3.16407 7.83204,-3.16407 4.41406,0 6.97265,2.85157 2.57813,2.83203 2.57813,7.71484 z m -3.59375,-1.05469 q -0.0391,-2.94922 -1.66016,-4.70703 -1.60156,-1.75781 -4.25781,-1.75781 -3.00781,0 -4.82422,1.69922 -1.79688,1.69922 -2.07031,4.78515 l 12.8125,-0.0195 z"
         id="path4426"
         inkscape:connector-curvature="0" />
      <path
         d="m 280.7847,340.59915 0,13.20313 -3.59375,0 0,-13.08594 q 0,-3.10547 -1.21094,-4.64844 -1.21094,-1.54297 -3.63281,-1.54297 -2.91016,0 -4.58985,1.85547 -1.67968,1.85547 -1.67968,5.0586 l 0,12.36328 -3.61328,0 0,-21.875 3.61328,0 0,3.39843 q 1.28906,-1.97265 3.02734,-2.94921 1.75781,-0.97657 4.04297,-0.97657 3.76953,0 5.70312,2.34375 1.9336,2.32422 1.9336,6.85547 z"
         id="path4428"
         inkscape:connector-curvature="0" />
      <path
         d="m 297.93314,342.80618 q -4.35547,0 -6.03516,0.9961 -1.67969,0.99609 -1.67969,3.39843 0,1.91407 1.25,3.04688 1.26953,1.11328 3.4375,1.11328 2.98828,0 4.78516,-2.10937 1.8164,-2.12891 1.8164,-5.64454 l 0,-0.80078 -3.57421,0 z m 7.16796,-1.48437 0,12.48047 -3.59375,0 0,-3.32032 q -1.23046,1.99219 -3.0664,2.94922 -1.83594,0.9375 -4.49219,0.9375 -3.35937,0 -5.35156,-1.875 -1.97266,-1.89453 -1.97266,-5.05859 0,-3.69141 2.46094,-5.56641 2.48047,-1.875 7.38281,-1.875 l 5.03906,0 0,-0.35156 q 0,-2.48047 -1.64062,-3.82812 -1.62109,-1.36719 -4.57031,-1.36719 -1.875,0 -3.65235,0.44922 -1.77734,0.44922 -3.41797,1.34765 l 0,-3.32031 q 1.97266,-0.76172 3.82813,-1.13281 1.85547,-0.39063 3.61328,-0.39063 4.74609,0 7.08984,2.46094 2.34375,2.46094 2.34375,7.46094 z"
         id="path4430"
         inkscape:connector-curvature="0" />
      <path
         d="m 313.44095,348.84134 4.12109,0 0,4.96094 -4.12109,0 0,-4.96094 z m 0,-15.72266 4.12109,0 0,4.96094 -4.12109,0 0,-4.96094 z"
         id="path4432"
         inkscape:connector-curvature="0" />
    </g>
  </g>
</svg>
