<?xml version="1.0" encoding="UTF-8" standalone="no"?>
<!-- Created with Inkscape (http://www.inkscape.org/) -->

<svg
   width="297mm"
   height="210mm"
   viewBox="0 0 297 210"
   version="1.1"
   id="svg5"
   xml:space="preserve"
   inkscape:version="1.2 (dc2aedaf03, 2022-05-15)"
   sodipodi:docname="ags_fake_logo.svg"
   xmlns:inkscape="http://www.inkscape.org/namespaces/inkscape"
   xmlns:sodipodi="http://sodipodi.sourceforge.net/DTD/sodipodi-0.dtd"
   xmlns:xlink="http://www.w3.org/1999/xlink"
   xmlns="http://www.w3.org/2000/svg"
   xmlns:svg="http://www.w3.org/2000/svg"><sodipodi:namedview
     id="namedview7"
     pagecolor="#ffffff"
     bordercolor="#111111"
     borderopacity="1"
     inkscape:showpageshadow="0"
     inkscape:pageopacity="0"
     inkscape:pagecheckerboard="1"
     inkscape:deskcolor="#d1d1d1"
     inkscape:document-units="mm"
     showgrid="false"
     inkscape:zoom="0.91490602"
     inkscape:cx="574.92244"
     inkscape:cy="61.754977"
     inkscape:window-width="2482"
     inkscape:window-height="1411"
     inkscape:window-x="69"
     inkscape:window-y="-9"
     inkscape:window-maximized="1"
     inkscape:current-layer="layer1" /><defs
     id="defs2"><linearGradient
       inkscape:collect="always"
       id="linearGradient3538"><stop
         style="stop-color:#ff6600;stop-opacity:1;"
         offset="0"
         id="stop3536" /><stop
         style="stop-color:#ffae78;stop-opacity:1;"
         offset="1"
         id="stop3534" /></linearGradient><linearGradient
       inkscape:collect="always"
       id="linearGradient2610"><stop
         style="stop-color:#ffae78;stop-opacity:1;"
         offset="0"
         id="stop2606" /><stop
         style="stop-color:#ff6600;stop-opacity:1;"
         offset="1"
         id="stop2608" /></linearGradient><linearGradient
       inkscape:collect="always"
       id="linearGradient2602"><stop
         style="stop-color:#ff6600;stop-opacity:1;"
         offset="0"
         id="stop2598" /><stop
         style="stop-color:#fecb92;stop-opacity:1;"
         offset="1"
         id="stop2600" /></linearGradient><radialGradient
       inkscape:collect="always"
       xlink:href="#linearGradient2602"
       id="radialGradient2604"
       cx="33.350418"
       cy="34.523216"
       fx="33.350418"
       fy="34.523216"
       r="26.487272"
       gradientTransform="matrix(1,0,0,0.97105705,17.833149,51.585219)"
       gradientUnits="userSpaceOnUse" /><radialGradient
       inkscape:collect="always"
       xlink:href="#linearGradient2610"
       id="radialGradient2612"
       cx="22.033745"
       cy="30.360231"
       fx="22.033745"
       fy="30.360231"
       r="26.532511"
       gradientTransform="matrix(1,0,0,0.96146428,17.833149,51.915791)"
       gradientUnits="userSpaceOnUse" /><radialGradient
       inkscape:collect="always"
       xlink:href="#linearGradient3538"
       id="radialGradient2612-8"
       cx="22.033745"
       cy="30.360231"
       fx="22.033745"
       fy="30.360231"
       r="26.532511"
       gradientTransform="matrix(1,0,0,0.96146428,17.857636,51.720628)"
       gradientUnits="userSpaceOnUse" /></defs><g
     inkscape:label="Layer 1"
     inkscape:groupmode="layer"
     id="layer1"><path
       id="rect355"
       style="opacity:0.95;fill:#000000;stroke-width:0.264583"
       d="M 135.34161 85.109017 L 135.34161 107.29009 L 248.9941 107.29009 L 248.9941 85.109017 L 135.34161 85.109017 z M 153.73739 90.273043 C 154.76467 90.273043 155.62277 90.408287 156.31139 90.67922 C 157.00001 90.938863 157.49642 91.25495 157.80122 91.627482 C 158.01571 91.887126 158.13994 92.237282 158.17381 92.677547 C 158.20767 93.117813 158.22445 93.529826 158.22445 93.913647 L 157.88597 93.913647 C 157.67148 92.931517 157.26523 92.191888 156.66692 91.695178 C 156.0799 91.198469 155.27265 90.950521 154.24537 90.950521 C 153.52288 90.950521 152.90172 91.097294 152.38243 91.390804 C 151.87443 91.673025 151.45717 92.056734 151.12979 92.542155 C 150.80242 93.027576 150.55972 93.574834 150.40167 94.184432 C 150.25492 94.782741 150.18153 95.398138 150.18153 96.030314 C 150.18153 97.384977 150.36186 98.457469 150.7231 99.247689 C 151.09563 100.03791 151.59256 100.60246 152.21345 100.94113 C 152.83434 101.27979 153.51159 101.4491 154.24537 101.4491 C 154.85496 101.4491 155.3629 101.39826 155.7693 101.29666 C 156.1757 101.18377 156.54263 101.037 156.87001 100.85638 L 156.87001 97.909786 C 156.87001 97.67272 156.89832 97.441549 156.95476 97.215771 C 157.01121 96.978706 157.12967 96.76431 157.31029 96.5724 C 157.50221 96.380489 157.78422 96.227952 158.15675 96.115063 C 158.52929 95.990886 159.03198 95.928512 159.66416 95.928512 L 159.66416 96.267509 C 159.111 96.267509 158.76085 96.414282 158.61409 96.707792 C 158.46734 96.990014 158.39395 97.379487 158.39395 97.876196 L 158.39395 101.05946 C 157.78435 101.432 157.14641 101.703 156.48037 101.87233 C 155.81433 102.04167 155.06945 102.12658 154.24537 102.12658 C 153.3987 102.12658 152.61976 101.96828 151.90856 101.65219 C 151.20865 101.33611 150.60478 100.90155 150.09678 100.3484 C 149.58878 99.795243 149.19355 99.151541 148.91132 98.417765 C 148.6291 97.672701 148.48809 96.876978 148.48809 96.030314 C 148.48809 94.957873 148.70249 93.987072 149.13147 93.11783 C 149.56044 92.248589 150.16431 91.559805 150.94324 91.051807 C 151.73346 90.532519 152.66494 90.273043 153.73739 90.273043 z M 198.06853 90.307149 C 198.48622 90.307149 198.90976 90.352231 199.33874 90.442542 C 199.76771 90.532852 200.16295 90.668097 200.52419 90.848718 C 200.88544 91.018051 201.17322 91.227199 201.38771 91.475553 C 201.61348 91.723908 201.72619 92.01169 201.72619 92.339067 L 201.72619 94.150842 L 201.4213 94.150842 C 201.22939 93.010668 200.86297 92.197652 200.32111 91.712231 C 199.77924 91.226811 199.02808 90.984111 198.06853 90.984111 C 197.74115 90.984111 197.42507 91.057497 197.12027 91.204252 C 196.81547 91.339718 196.56752 91.537337 196.37561 91.796981 C 196.19499 92.045336 196.10431 92.344646 196.10431 92.6946 C 196.10431 93.180021 196.26261 93.580506 196.5787 93.896594 C 196.89479 94.212682 197.36341 94.55131 197.9843 94.912553 L 200.06686 96.148653 C 200.78934 96.57763 201.31983 96.995408 201.65849 97.401807 C 201.99716 97.796917 202.16647 98.310622 202.16647 98.942798 C 202.16647 99.891062 201.85038 100.65323 201.21821 101.22896 C 200.58603 101.79341 199.72845 102.07542 198.64472 102.07542 C 198.19317 102.07542 197.73556 102.02458 197.27271 101.92298 C 196.82116 101.83267 196.40338 101.69742 196.01956 101.5168 C 195.64703 101.33618 195.34823 101.12178 195.12246 100.87343 C 194.89668 100.61379 194.78346 100.326 194.78346 100.00992 L 194.78346 98.197624 L 195.08835 98.197624 C 195.28026 99.337798 195.65296 100.15658 196.20611 100.65329 C 196.77055 101.15 197.53272 101.39846 198.49228 101.39846 C 198.8761 101.39846 199.23727 101.33609 199.57593 101.21191 C 199.9146 101.07644 200.1856 100.87882 200.3888 100.61918 C 200.60329 100.35954 200.71023 100.04345 200.71023 99.670919 C 200.71023 99.174209 200.55244 98.751183 200.23636 98.401229 C 199.93156 98.051274 199.4687 97.695354 198.84781 97.334111 L 196.76473 96.09801 C 196.04225 95.669034 195.52854 95.234479 195.22374 94.794214 C 194.93023 94.353949 194.78346 93.817702 194.78346 93.185527 C 194.78346 92.316285 195.08277 91.622254 195.68108 91.102966 C 196.29068 90.57239 197.0864 90.307149 198.06853 90.307149 z M 222.28359 90.611523 L 223.80753 90.611523 C 224.20264 90.611523 224.5072 90.662369 224.72168 90.763969 C 224.94746 90.865569 225.10576 91.063187 225.19607 91.356698 C 225.28638 91.650208 225.33147 92.079515 225.33147 92.643958 L 225.33147 101.78759 L 224.48449 101.78759 L 223.89228 101.02587 L 223.80753 101.02587 C 223.62691 101.24036 223.37268 101.44899 223.0453 101.65219 C 222.71792 101.85539 222.20998 101.95708 221.52136 101.95708 C 220.84403 101.95708 220.27948 101.77099 219.82793 101.39846 C 219.37637 101.02593 219.03774 100.52324 218.81197 99.89106 C 218.58619 99.258884 218.47349 98.564853 218.47349 97.8085 C 218.47349 97.040858 218.58619 96.34631 218.81197 95.725423 C 219.04903 95.093247 219.40444 94.591071 219.87857 94.218538 C 220.3527 93.846006 220.95709 93.659916 221.69086 93.659916 C 222.16499 93.659916 222.57124 93.71601 222.90991 93.828898 C 223.24857 93.930498 223.54788 94.043718 223.80753 94.167896 L 223.80753 92.643958 C 223.80753 92.135959 223.73414 91.729193 223.58739 91.424394 C 223.45192 91.108306 223.13007 90.950521 222.62207 90.950521 L 222.28359 90.950521 L 222.28359 90.611523 z M 228.49768 90.967057 C 228.75732 90.967057 228.97748 91.074513 229.15811 91.289001 C 229.35002 91.50349 229.44594 91.757719 229.44594 92.051229 C 229.44594 92.288295 229.37256 92.474385 229.2258 92.609851 C 229.09034 92.745317 228.90425 92.812939 228.66718 92.812939 C 228.40754 92.812939 228.18161 92.706 227.9897 92.491512 C 227.80908 92.277024 227.71892 92.022795 227.71892 91.729285 C 227.71892 91.492219 227.78654 91.306129 227.92201 91.170662 C 228.06876 91.035196 228.26061 90.967057 228.49768 90.967057 z M 205.28256 91.289001 L 205.95952 91.289001 L 205.95952 93.828898 L 207.99144 93.828898 L 207.99144 94.506376 L 205.95952 94.506376 L 205.95952 99.755668 C 205.95952 100.26367 206.05545 100.64738 206.24736 100.90702 C 206.45056 101.15537 206.74987 101.27961 207.14498 101.27961 C 207.43849 101.27961 207.68119 101.24605 207.8731 101.17832 C 208.06501 101.11059 208.24585 101.03144 208.41519 100.94113 L 208.58417 101.27961 C 208.40355 101.41507 208.1556 101.56185 207.83951 101.71989 C 207.52342 101.87793 207.06581 101.95708 206.4675 101.95708 C 205.86919 101.95708 205.37854 101.78201 204.99472 101.43205 C 204.62219 101.0821 204.43558 100.52331 204.43558 99.755668 L 204.43558 94.506376 L 203.25013 94.506376 L 203.25013 93.828898 L 204.43558 93.828898 L 204.43558 92.30496 L 205.28256 91.289001 z M 163.98172 93.659916 C 164.36554 93.659916 164.73248 93.704998 165.08243 93.795308 C 165.44367 93.885619 165.75976 94.054933 166.03069 94.303288 C 166.31291 94.540354 166.53307 94.895757 166.69112 95.369889 C 166.86045 95.832732 166.94537 96.448129 166.94537 97.215771 L 166.94537 101.78759 L 166.09839 101.78759 L 165.50618 101.02587 L 165.42143 101.02587 C 165.25209 101.24036 164.97532 101.44899 164.5915 101.65219 C 164.20768 101.85539 163.69398 101.95708 163.05051 101.95708 C 162.81345 101.95708 162.55397 101.91725 162.27175 101.83823 C 162.00082 101.7705 161.73558 101.64678 161.47593 101.46616 C 161.21629 101.28554 161.00189 101.04284 160.83256 100.73804 C 160.67452 100.43324 160.59537 100.04901 160.59537 99.586169 C 160.59537 98.965282 160.79298 98.485646 161.18809 98.146981 C 161.59449 97.808315 162.12497 97.571379 162.77973 97.435913 C 163.44577 97.289158 164.15709 97.215771 164.91345 97.215771 L 165.42143 97.215771 C 165.42143 96.425552 165.34228 95.826931 165.18423 95.420532 C 165.02619 95.002845 164.81179 94.720827 164.54086 94.574072 C 164.28122 94.416028 163.98191 94.336877 163.64324 94.336877 C 163.16911 94.336877 162.76862 94.438569 162.44125 94.641768 C 162.12516 94.844968 161.905 95.223429 161.78082 95.776583 L 161.0186 95.776583 C 161.0186 95.483073 161.03537 95.212067 161.06924 94.963713 C 161.1031 94.704069 161.22734 94.466616 161.44183 94.252128 C 161.65631 94.03764 162.00647 93.885619 162.49189 93.795308 C 162.97731 93.704998 163.47372 93.659916 163.98172 93.659916 z M 173.27831 93.659916 C 173.57182 93.659916 173.84283 93.693469 174.09118 93.761202 C 174.35083 93.828935 174.582 93.947403 174.7852 94.116736 C 174.99969 94.286069 175.17476 94.528769 175.31023 94.844857 C 175.60374 94.461036 175.9822 94.16749 176.44504 93.96429 C 176.90789 93.761091 177.37599 93.659916 177.85013 93.659916 C 178.2791 93.659916 178.66858 93.744315 179.01853 93.913647 C 179.37977 94.08298 179.66807 94.388055 179.88256 94.82832 C 180.10834 95.257297 180.22104 95.883706 180.22104 96.707792 L 180.22104 101.78759 L 178.6971 101.78759 L 178.6971 96.707792 C 178.6971 95.861128 178.57863 95.268272 178.34157 94.929606 C 178.1045 94.59094 177.77112 94.421627 177.34215 94.421627 C 177.01477 94.421627 176.67614 94.540095 176.32619 94.777161 C 175.97623 95.014227 175.72252 95.262691 175.56448 95.522335 C 175.60963 95.646512 175.63217 95.832602 175.63217 96.080957 C 175.64346 96.329312 175.64923 96.538459 175.64923 96.707792 L 175.64923 101.78759 L 174.12529 101.78759 L 174.12529 96.707792 C 174.12529 95.861128 174.0063 95.268272 173.76924 94.929606 C 173.53217 94.59094 173.19931 94.421627 172.77033 94.421627 C 172.43167 94.421627 172.11558 94.51179 171.82207 94.692411 C 171.53985 94.873033 171.29138 95.08218 171.0769 95.319246 L 171.0769 101.78759 L 169.55296 101.78759 L 169.55296 95.860815 C 169.55296 95.352817 169.47957 94.946567 169.33282 94.641768 C 169.19735 94.32568 168.8755 94.167896 168.3675 94.167896 L 168.02902 94.167896 L 168.02902 93.828898 L 169.55296 93.828898 C 169.98193 93.828898 170.30379 93.891273 170.51827 94.01545 C 170.74405 94.128339 170.90184 94.291888 170.99215 94.506376 L 171.0769 94.506376 C 171.29138 94.291888 171.58493 94.100034 171.95746 93.930701 C 172.32999 93.750079 172.77031 93.659916 173.27831 93.659916 z M 185.52098 93.659916 C 186.28862 93.659916 186.92079 93.806689 187.4175 94.100199 C 187.9255 94.382421 188.2982 94.799682 188.53526 95.352836 C 188.78362 95.90599 188.90785 96.583761 188.90785 97.38527 L 188.87374 98.062231 L 183.74331 98.062231 C 183.74331 98.987918 183.94093 99.755852 184.33604 100.36545 C 184.74243 100.97505 185.30647 101.27961 186.02896 101.27961 C 186.58211 101.27961 187.03972 101.16114 187.40096 100.92407 C 187.7735 100.68701 188.10636 100.35414 188.39987 99.925167 L 188.73835 100.1789 C 188.49 100.60787 188.20798 100.95227 187.89189 101.21191 C 187.58709 101.47155 187.24846 101.66341 186.87593 101.78759 C 186.51469 101.90047 186.11945 101.95708 185.69047 101.95708 C 184.90025 101.95708 184.23978 101.77099 183.7092 101.39846 C 183.18991 101.02593 182.79468 100.52324 182.52374 99.89106 C 182.2641 99.258884 182.13462 98.564853 182.13462 97.8085 C 182.13462 97.040858 182.26986 96.34631 182.5408 95.725423 C 182.81173 95.093247 183.2012 94.591071 183.7092 94.218538 C 184.2172 93.846006 184.82107 93.659916 185.52098 93.659916 z M 235.20321 93.659916 C 235.99343 93.659916 236.66544 93.846006 237.2186 94.218538 C 237.77175 94.591071 238.19478 95.093247 238.48829 95.725423 C 238.7818 96.34631 238.92857 97.040858 238.92857 97.8085 C 238.92857 98.564853 238.7818 99.258884 238.48829 99.89106 C 238.19478 100.52324 237.77175 101.02593 237.2186 101.39846 C 236.66544 101.77099 235.99343 101.95708 235.20321 101.95708 C 234.41299 101.95708 233.7415 101.77099 233.18835 101.39846 C 232.6352 101.02593 232.21217 100.52324 231.91866 99.89106 C 231.62515 99.258884 231.47838 98.564853 231.47838 97.8085 C 231.47838 97.040858 231.62515 96.34631 231.91866 95.725423 C 232.21217 95.093247 232.6352 94.591071 233.18835 94.218538 C 233.7415 93.846006 234.41299 93.659916 235.20321 93.659916 z M 208.49942 93.828898 L 209.85437 93.828898 C 210.24948 93.828898 210.55404 93.879744 210.76853 93.981344 C 210.99431 94.082943 211.15261 94.280562 211.24292 94.574072 C 211.33323 94.867583 211.37831 95.296373 211.37831 95.860815 L 211.37831 98.909208 C 211.37831 99.473651 211.46847 99.924982 211.6491 100.26365 C 211.82972 100.59102 212.06141 100.82796 212.34363 100.97472 C 212.63714 101.12147 212.93593 101.19486 213.24073 101.19486 C 213.46651 101.19486 213.68142 101.15554 213.88462 101.07652 C 214.08782 100.98621 214.27967 100.8735 214.46029 100.73804 C 214.64092 100.60257 214.7987 100.4558 214.93417 100.29775 L 214.93417 93.828898 L 216.45811 93.828898 L 216.45811 101.78759 L 215.61165 101.78759 L 215.01892 101.11011 L 214.93417 101.11011 C 214.71968 101.3246 214.42613 101.52221 214.0536 101.70284 C 213.68107 101.87217 213.24075 101.95708 212.73275 101.95708 C 212.25862 101.95708 211.80152 101.87217 211.36126 101.70284 C 210.92099 101.5335 210.55983 101.22895 210.2776 100.78868 C 209.99538 100.34841 209.85437 99.722006 209.85437 98.909208 L 209.85437 95.860815 C 209.85437 95.352817 209.78099 94.946567 209.63423 94.641768 C 209.49877 94.32568 209.17692 94.167896 208.66892 94.167896 L 208.49942 94.167896 L 208.49942 93.828898 z M 226.49987 93.828898 L 228.02381 93.828898 C 228.41892 93.828898 228.72348 93.879744 228.93796 93.981344 C 229.16374 94.082943 229.32204 94.280562 229.41235 94.574072 C 229.50266 94.867583 229.54775 95.296373 229.54775 95.860815 L 229.54775 101.78759 L 228.02381 101.78759 L 228.02381 95.860815 C 228.02381 95.352817 227.95042 94.946567 227.80367 94.641768 C 227.6682 94.32568 227.34635 94.167896 226.83835 94.167896 L 226.49987 94.167896 L 226.49987 93.828898 z M 185.52098 94.336877 C 185.18231 94.336877 184.87775 94.472638 184.60682 94.743571 C 184.34718 95.003215 184.13803 95.364383 183.97998 95.827226 C 183.82194 96.27878 183.74331 96.79825 183.74331 97.38527 L 187.29916 97.38527 C 187.29916 96.40314 187.15239 95.651982 186.85888 95.132694 C 186.56537 94.602118 186.11929 94.336877 185.52098 94.336877 z M 222.19884 94.336877 C 221.69084 94.336877 221.27883 94.495179 220.96274 94.811267 C 220.65794 95.116066 220.43202 95.52808 220.28526 96.047367 C 220.1498 96.566655 220.08217 97.153747 220.08217 97.8085 C 220.08217 98.451965 220.1498 99.039057 220.28526 99.569633 C 220.42073 100.08892 220.62936 100.50618 220.91158 100.82227 C 221.20509 101.12707 221.57779 101.27961 222.02934 101.27961 C 222.3793 101.27961 222.66131 101.22876 222.8758 101.12716 C 223.09029 101.02556 223.26537 100.90133 223.40083 100.75457 C 223.54759 100.59653 223.68335 100.43298 223.80753 100.26365 L 223.80753 94.844857 C 223.54788 94.720679 223.27688 94.607976 222.99466 94.506376 C 222.72372 94.393488 222.45848 94.336877 222.19884 94.336877 z M 235.20321 94.336877 C 234.78553 94.336877 234.41335 94.495179 234.08597 94.811267 C 233.76988 95.116066 233.52142 95.52808 233.3408 96.047367 C 233.17146 96.566655 233.08706 97.153747 233.08706 97.8085 C 233.08706 98.451965 233.17146 99.039057 233.3408 99.569633 C 233.52142 100.08892 233.76988 100.50618 234.08597 100.82227 C 234.41335 101.12707 234.78553 101.27961 235.20321 101.27961 C 235.63219 101.27961 236.00489 101.12707 236.32098 100.82227 C 236.63706 100.50618 236.87976 100.08892 237.0491 99.569633 C 237.22972 99.039057 237.31988 98.451965 237.31988 97.8085 C 237.31988 97.153747 237.22972 96.566655 237.0491 96.047367 C 236.87976 95.52808 236.63706 95.116066 236.32098 94.811267 C 236.00489 94.495179 235.63219 94.336877 235.20321 94.336877 z M 164.91345 97.89325 C 164.06678 97.89325 163.40054 98.051034 162.91512 98.367122 C 162.44099 98.671921 162.20405 99.078171 162.20405 99.586169 C 162.20405 100.13932 162.3676 100.54609 162.69498 100.80573 C 163.02236 101.06538 163.39505 101.19486 163.81274 101.19486 C 164.23043 101.19486 164.55753 101.09317 164.79459 100.88997 C 165.04295 100.67548 165.25209 100.43854 165.42143 100.1789 L 165.42143 97.89325 L 164.91345 97.89325 z " /><ellipse
       style="opacity:1;fill:url(#radialGradient2612);fill-opacity:1;stroke-width:0.248227"
       id="path1865"
       cx="51.113815"
       cy="85.093613"
       rx="26.532511"
       ry="25.510061" /><path
       id="path1865-9"
       style="fill:url(#radialGradient2612-8);fill-opacity:1;stroke-width:0.248227"
       d="M 51.138099,59.388579 A 26.532511,25.510061 0 0 0 24.605866,84.898651 26.532511,25.510061 0 0 0 51.138099,110.40872 26.532511,25.510061 0 0 0 77.670839,84.898651 26.532511,25.510061 0 0 0 51.138099,59.388579 Z m 0,2.540414 A 23.669659,22.969461 0 0 1 74.807969,84.898651 23.669659,22.969461 0 0 1 51.138099,107.86779 23.669659,22.969461 0 0 1 27.46874,84.898651 23.669659,22.969461 0 0 1 51.138099,61.928993 Z" /><path
       id="path2864"
       style="fill:#000000;stroke-width:0.0923984"
       d="m 61.328168,64.015687 c -3.135395,0.03692 -6.25085,0.567493 -9.266102,1.410767 0.146928,0.01207 0.293065,0.01671 0.43925,0.02119 h 0.606681 c 2.715974,-0.0889 5.328113,-1.243204 8.088396,-0.913122 1.201215,-0.149539 2.962154,0.718121 3.707267,0.716752 -0.859271,-1.126734 -2.276711,-1.233066 -3.575492,-1.235584 z m 3.629752,2.475301 c -0.333467,0.713082 -2.738402,0.936995 -1.839164,2.087211 h 2.130619 c 0.383175,-0.06987 0.663859,-0.223798 0.703833,-0.544669 0.200625,0.37757 0.365364,0.406559 0.0708,-0.578776 0.06635,-0.194703 -0.107937,-0.650523 -0.399976,-0.489893 0.0041,0.04274 0.01082,0.08626 0.01757,0.129708 -0.02685,-0.04421 -0.05307,-0.08815 -0.08372,-0.134875 L 65.275211,66.635682 65.00236,66.490988 Z m -16.448091,0.463538 c -0.369874,0.0019 -0.739488,0.03283 -1.109494,0.01034 -0.758143,0.446383 -3.642821,1.124554 -3.196704,1.570447 1.301815,-0.287767 4.021388,-1.401248 4.306198,-1.580782 z m 13.53354,2.667021 c -0.518435,0.366217 0.130362,0.08173 0.139527,0 z m 1.476396,0 c -0.588605,0.577889 -1.849343,1.749426 -1.441256,2.086694 h 1.072803 c 0.01535,-0.0033 0.02615,-0.0042 0.04186,-0.0078 h 3.427698 c 0.0099,-0.147357 0.01275,-0.283768 0.01034,-0.411861 0.202028,0.341673 0.387455,0.318814 0.0646,-0.639754 -0.0014,-0.194492 0.03332,-0.728562 -0.332797,-0.568441 -0.0046,0.03372 -0.0047,0.06813 -0.0067,0.10232 -0.217408,-0.331714 -0.552083,-0.489933 -0.955009,-0.561158 z m -2.202966,0.376204 c -1.394451,-0.0037 -4.511609,2.451241 -1.7601,1.335836 0.709085,-0.374247 1.314168,-0.911411 2.013831,-1.300696 -0.0754,-0.02389 -0.160768,-0.03489 -0.253731,-0.03514 z m 1.213362,0.01705 c -0.07113,-0.0042 -0.194133,0.0143 -0.387573,0.06563 -1.133071,0.694508 -1.455109,1.57234 -0.09508,0.412378 0.125216,-0.0182 0.790895,-0.4599 0.482658,-0.478007 z m -21.732523,0.03927 c -0.09142,0.0041 -0.200281,0.01267 -0.328662,0.02635 -0.983399,0.202102 -3.546018,2.397164 -1.220081,1.184424 0.339217,-0.305145 2.919964,-1.27158 1.548743,-1.210779 z M 60.5277,72.751064 c -0.88083,0.612899 -1.520646,1.704607 -1.059884,2.086695 h 1.28881 c 0.0015,-4.36e-4 0.0026,-5.96e-4 0.0041,-0.001 h 6.484876 c 0.02047,-0.135585 0.03229,-0.263086 0.03617,-0.382922 0.195215,0.297736 0.357388,0.233903 0.05943,-0.700733 0.01315,-0.212218 0.0013,-0.728792 -0.364319,-0.557588 -0.0055,0.04676 -0.0063,0.09417 -0.0072,0.141593 -0.258345,-0.326117 -0.655902,-0.502349 -1.112077,-0.586011 z m -24.040393,0.395842 c -0.139204,0.0046 -0.303545,0.02041 -0.494544,0.04858 -0.973501,0.363341 -1.092911,1.439459 -0.633553,1.642277 h 0.35295 c 0.173197,-0.05588 0.378804,-0.186661 0.614433,-0.42168 0.882902,-0.778071 1.13514,-1.301427 0.160714,-1.269173 z m 18.161682,0.04858 c -0.921825,0.62861 -3.842498,1.091235 -3.626136,1.642277 h 0.152963 c 1.413266,-0.05614 3.794949,-1.281103 4.162536,-1.642277 z m -15.581995,0.06615 c -0.930501,-0.01446 -3.12082,1.275707 -2.508891,1.576132 h 1.07487 c 0.0033,-5.11e-4 0.0054,-5.17e-4 0.0088,-0.001 h 3.796668 c -0.466539,-0.8595 -1.342209,-1.613901 -2.371432,-1.575098 z m 0.791683,2.619479 c -0.367685,0.03439 -0.735235,0.06098 -1.080554,0.001 h -3.377055 c 0.03483,2.101482 3.165815,1.861518 4.730461,1.694987 2.488271,-0.202545 4.956166,-0.635166 7.371126,-1.266072 -1.82978,-0.484217 -4.068245,0.929004 -5.545915,-0.07338 -0.203717,-0.190913 -0.431832,-0.298447 -0.675411,-0.356567 z m 24.92251,0 c -0.0039,4.42e-4 -0.008,5.87e-4 -0.01189,0.001 h -6.51123 c -0.935663,1.197105 -0.492821,1.860334 0.344165,2.085661 h 9.250598 c 0.02119,-0.136868 0.03355,-0.265237 0.03772,-0.386023 0.194283,0.283767 0.353807,0.205821 0.06563,-0.72192 0.02105,-0.221134 -0.01608,-0.723273 -0.378789,-0.548803 -0.0056,0.04777 -0.0063,0.09635 -0.0072,0.144694 -0.264704,-0.324411 -0.671583,-0.495537 -1.135848,-0.574642 z m -30.189372,0.367419 c -0.07187,-0.0052 -0.147476,0.01287 -0.21859,0.06253 -0.33623,1.327509 1.18053,2.245893 0.543118,0.401009 0.07291,-0.221887 -0.108924,-0.448038 -0.324528,-0.463539 z m 13.998629,0.06253 c -1.092423,0.304863 -3.679439,0.784152 -3.796668,1.146183 1.033597,-0.211677 3.98971,-0.629757 3.796668,-1.146183 z M 35.09721,79.011154 c -0.02193,-1.42e-4 -0.04545,0.0018 -0.07131,0.0078 1.27287,1.239195 -0.719294,1.710019 -1.887739,1.859318 0.06312,-0.0031 0.1042,-0.0061 0.176733,-0.0093 0.885113,-0.186527 2.818575,-0.336186 0.805636,0.05478 -0.754127,-0.0047 -0.566337,0.106039 -0.08475,0.17415 h 1.371491 c 0.647427,-0.113294 1.043971,-0.445327 0.234094,-1.243335 -0.314276,-0.09784 -0.19398,-0.830388 -0.536401,-0.84336 z m -1.959052,1.86707 c -1.167811,0.05751 -0.777644,0.09936 0,0 z m 32.323607,-1.86707 c -0.02996,0.0032 -0.06124,0.0043 -0.09095,0.0078 h -7.648112 c -0.294249,1.381205 0.428097,1.909685 1.383378,2.078943 h 9.341549 c 0.02293,-0.146536 0.03488,-0.282748 0.03824,-0.410828 0.191837,0.293816 0.350543,0.225627 0.06304,-0.708484 0.02031,-0.217222 -0.0048,-0.725872 -0.369486,-0.551904 -0.006,0.0559 -0.0074,0.112767 -0.0072,0.169499 -0.271841,-0.33725 -0.697132,-0.509174 -1.181323,-0.584978 z m -34.322451,0.374654 c -0.104211,-0.0018 -0.252307,0.01061 -0.453203,0.04083 -1.159353,0.140972 -2.483116,2.687494 -0.632003,0.982369 0.400714,-0.295446 1.814677,-1.010806 1.085206,-1.023194 z m 0.695048,2.754871 c -0.05874,0.0053 -0.10316,0.008 -0.167949,0.01447 -0.935662,0.549341 -0.929056,0.907257 -1.292944,0.344166 -1.220902,0.20879 -1.405383,1.309636 -0.913639,1.728576 h 1.053682 c 0.07779,-0.03953 0.157336,-0.08447 0.240812,-0.14056 0.10647,-0.938984 2.404559,-1.758566 2.062407,-1.946651 z m 34.296613,0 c -0.0562,0.0056 -0.114099,0.0081 -0.169499,0.01447 h -7.711674 c -0.248053,1.34215 0.375897,1.88991 1.247986,2.072742 h 9.541537 c 0.02462,-0.159559 0.03627,-0.306738 0.03772,-0.444417 0.189888,0.312766 0.348778,0.263722 0.05529,-0.681096 0.01416,-0.20758 0.01869,-0.731085 -0.349849,-0.560172 -0.0067,0.06835 -0.008,0.138023 -0.0057,0.207739 -0.279185,-0.359092 -0.728543,-0.535914 -1.2392,-0.609265 z m -29.839522,0.01447 c 0.120991,1.683604 1.085036,2.434173 2.454114,1.495 1.078291,-0.393686 2.156653,-0.787121 3.234944,-1.180807 -1.850236,-0.169772 -4.166969,0.244547 -5.689058,-0.314193 z m -8.099246,0.282154 c -0.07979,0.0034 -0.183531,0.0347 -0.31471,0.104903 -1.187649,0.963606 -0.245969,2.436481 0.275436,0.545703 0.280101,-0.154805 0.385006,-0.665425 0.03927,-0.650606 z m 0.852144,2.833935 c -0.01759,0.0075 -0.03418,0.01302 -0.05219,0.02119 -1.193519,0.565685 -0.971698,1.661706 -0.321428,2.065507 h 1.070736 c 0.12733,-0.07465 0.254508,-0.178051 0.377238,-0.315227 0.268748,0.07902 0.48838,-1.331999 -0.113171,-1.771468 z m 37.756351,0 c -0.08264,0.0076 -0.166994,0.01188 -0.248047,0.02119 h -7.791773 c -0.247516,1.328461 0.361216,1.877426 1.219047,2.065507 h 9.651608 c 0.02656,-0.174697 0.03836,-0.33523 0.03721,-0.483692 0.177929,0.246821 0.323532,0.108073 0.04599,-0.808219 0.227995,-0.211393 -0.05082,-0.600922 -0.331763,-0.408244 -0.0058,0.08406 -0.0049,0.166206 -0.001,0.247013 -0.286183,-0.381708 -0.7604,-0.5633 -1.298112,-0.633553 z m -28.087692,0.01964 c -0.388581,-0.0015 -0.777226,-0.0011 -1.16582,0.0016 0.08968,2.231488 1.060358,2.022665 2.364714,1.064534 0.765963,-0.340224 1.532087,-0.680384 2.298051,-1.020609 -1.165569,-0.01985 -2.3312,-0.04083 -3.496945,-0.04548 z m -11.646833,0.315739 c -0.07011,-0.0029 -0.153809,0.01241 -0.251148,0.05116 -0.703791,0.946169 0.419247,2.366225 0.394808,0.6165 0.208142,-0.298336 0.160143,-0.655196 -0.14366,-0.66766 z m 40.27661,2.794662 c -0.109253,0.0092 -0.221297,0.01578 -0.326078,0.0279 h -7.750948 c -0.248576,1.314359 0.343846,1.865018 1.186491,2.058789 h 9.75341 c 0.03511,-0.183784 0.05175,-0.352765 0.05271,-0.507462 0.170585,0.257903 0.311578,0.176234 0.07441,-0.692981 -0.01869,-0.116799 -0.01086,-0.709991 -0.35295,-0.514181 -0.01005,0.08857 -0.0095,0.178609 -0.0047,0.268201 -0.304598,-0.392188 -0.823564,-0.573595 -1.400948,-0.640271 z m -37.918614,0.0078 c -0.336679,-0.01528 -0.740103,0.07782 -1.065052,0.02015 -0.975065,0.972655 -0.315724,1.789508 0.484209,2.058789 h 1.013375 c 0.208909,-0.09708 0.359822,-0.273336 0.401525,-0.542602 0.189166,0.386469 0.398525,0.406991 0.0956,-0.594279 0.01157,-0.182086 0.115296,-0.743975 -0.271301,-0.577743 -0.0091,0.04329 -0.01333,0.08761 -0.01809,0.131775 -0.08976,-0.377957 -0.337215,-0.482335 -0.640271,-0.496094 z m 9.348265,0.02015 c -0.152679,1.959076 1.16415,2.313264 2.367814,1.162203 0.931715,-0.493277 1.80412,-0.978818 -0.0031,-0.756026 -0.915737,0.003 -1.857267,0.05385 -2.364714,-0.406177 z m -12.010635,0.277974 c -0.0553,0.0031 -0.114905,0.0235 -0.17725,0.06615 -0.459987,1.237185 0.933218,2.272381 0.49816,0.447518 0.07533,-0.216363 -0.08129,-0.526911 -0.32091,-0.513664 z m 41.34993,2.824117 c -0.134232,0.01 -0.269136,0.01907 -0.399976,0.03411 h -7.951969 c -0.250998,1.299153 0.322854,1.852076 1.148767,2.052071 h 9.914123 c 0.02408,-0.180128 0.03298,-0.346053 0.02791,-0.498161 0.191005,0.326079 0.353722,0.293113 0.04031,-0.65164 -0.0072,-0.188998 0.0495,-0.735095 -0.320394,-0.578776 -0.01214,0.103624 -0.01,0.210497 -0.001,0.316777 -0.307727,-0.425445 -0.836156,-0.613371 -1.431437,-0.674378 z m -38.421427,0.01447 c -0.391823,-0.0068 -0.821333,0.07345 -1.174605,0.01964 -0.442902,1.050584 0.312637,1.790806 1.115177,2.052071 h 1.113111 c 0.219269,-0.110094 0.350708,-0.311024 0.323494,-0.613399 0.305807,0.439011 0.59439,0.468674 0.03669,-0.593763 -0.01704,-0.217583 -0.09055,-0.681037 -0.427881,-0.521415 0.0018,0.08825 0.01418,0.175988 0.03049,0.263033 -0.02313,-0.03468 -0.04261,-0.06742 -0.06821,-0.103353 -0.202381,-0.401986 -0.55644,-0.495974 -0.948263,-0.502811 z m 10.292911,0.01964 c -0.136168,2.068655 1.36642,2.441315 2.494422,0.91674 1.222514,-1.038691 -2.516272,-0.07511 -2.494422,-0.91674 z m -13.05605,0.323494 c -0.0064,1.534452 1.037653,2.083632 1.149801,0.302824 9.17e-4,-0.534698 -0.848719,-0.158922 -1.149801,-0.302824 z m 41.887365,2.771924 c -0.163695,0.01053 -0.327345,0.02332 -0.484208,0.04134 h -8.089945 c -0.255373,1.285133 0.300824,1.840014 1.111043,2.045353 h 9.913607 c 0.04867,-0.201459 0.07533,-0.385 0.08268,-0.551387 0.12761,0.26767 0.245637,0.149018 0.10697,-0.784448 0.241672,-0.192604 -0.01439,-0.610449 -0.304891,-0.407211 -0.0037,0.120312 9.56e-4,0.238021 0.0098,0.351917 -0.283352,-0.45805 -0.851379,-0.644241 -1.487765,-0.695565 z m -37.888642,0.01344 c -0.500711,-0.0226 -1.048586,0.06946 -1.491382,0.0279 0.147412,1.141746 -2.612421,-0.649168 -1.321366,1.239201 0.961117,2.521517 1.13167,-2.30816 1.995743,0.295589 0.150011,0.232449 0.386937,0.400596 0.657841,0.510563 h 1.593702 c 0.254771,-0.129491 0.405001,-0.336636 0.352433,-0.612882 0.439435,0.438255 0.756884,0.483744 -0.09767,-0.542603 -0.105544,-0.241877 -0.242204,-0.736616 -0.616499,-0.587561 0.02395,0.09094 0.06044,0.181918 0.101802,0.272335 -0.259768,-0.450326 -0.694563,-0.580883 -1.174605,-0.602547 z m 10.253637,0.0279 c 0.02852,1.360818 0.841096,2.892047 1.688269,1.076937 1.817728,-1.427029 -1.247476,-0.349975 -1.688269,-1.076937 z m -9.230444,3.089217 c -0.275876,0.08968 -0.488282,0.262859 -0.591178,0.539502 -0.70329,0.04842 -1.433026,-0.09183 -2.024683,-0.491959 0.152618,1.398893 1.984136,3.171732 2.149223,0.891418 0.914789,0.585997 2.002572,0.991075 3.14296,1.147734 h 2.060339 c 0.225575,-0.03165 0.450568,-0.07207 0.673861,-0.126091 -0.92051,-0.188421 -3.323396,-2.278475 -2.395203,-0.98857 -0.466211,-0.458951 -1.186427,-0.823093 -1.868102,-0.972036 z m 37.494868,0 c -0.07515,0.01339 -0.150457,0.02739 -0.225826,0.04754 h -8.515759 c -0.260637,1.271156 0.277569,1.82823 1.071769,2.039152 h 8.997901 c 1.070901,-1.100002 0.530469,-1.898899 -0.42323,-2.086695 z m -27.07535,0.04754 c 0.670541,0.545343 0.09304,1.720363 -0.09767,1.902726 0.129644,0.06659 0.246846,0.111771 0.35295,0.136426 h 0.394291 c 0.600275,-0.184718 0.713675,-1.237391 1.12603,-1.7632 -0.596436,-0.05252 -1.22687,0.02242 -1.775603,-0.275952 z m -0.09767,1.902726 c -0.01902,-0.0098 -0.03572,-0.01509 -0.05529,-0.02584 -0.0083,0.06196 0.01584,0.06356 0.05529,0.02584 z m 26.165328,1.179769 c -0.07651,0.0164 -0.1513,0.0306 -0.233578,0.0543 H 61.14213 c -0.267535,1.2571 0.251965,1.8158 1.029912,2.03192 h 6.724137 c 1.175191,-0.77211 1.305692,-1.81865 0.500745,-2.08618 z m -36.868033,0.0543 c 0.720323,0.85282 1.757925,1.90547 2.689758,2.03192 h 0.371553 c 0.203699,-0.0332 0.399075,-0.1214 0.580843,-0.28009 -0.894372,-0.34838 2.359111,-1.42846 -0.0062,-1.17047 -1.298907,0.11063 -2.406521,-0.22976 -3.635954,-0.58136 z m 12.095385,0 c 0.378379,0.42613 -0.01934,1.61371 -0.856796,1.89343 1.105169,0.34571 2.923232,0.0761 2.763656,-1.28416 -0.948133,-0.0908 -1.378571,0.12655 -1.90686,-0.60927 z m 22.923148,3.07527 c -0.127832,0.011 -0.266467,0.0286 -0.430464,0.0615 h -4.600751 c 0.324667,0.80174 -0.225345,1.68151 5.17e-4,2.0252 h 3.505729 c 0.329465,-0.0825 0.637594,-0.23547 0.907955,-0.5147 1.149998,-0.46929 1.888669,-1.45632 1.005106,-1.572 z m -30.353703,0.0615 c 0.966913,0.66844 4.558023,0.35033 3.919141,0.25476 -1.31495,0.0569 -2.612589,-0.21327 -3.919141,-0.25476 z m 8.706446,0 c -0.47635,1.46843 2.356336,3.18095 1.329634,0.91674 0.931245,-0.94934 -1.130645,-0.5263 -1.329634,-0.91674 z m 15.764412,3.06854 c -0.987531,0.0296 -2.11065,0.22386 -2.69906,0.56948 -2.170346,0.87205 -4.584536,0.40558 -6.835242,0.22169 -1.301045,-0.23644 -2.580191,-0.75492 -3.91604,-0.72347 1.846373,1.23956 3.927858,1.8584 6.070431,2.019 h 2.350244 c 2.376677,-0.16571 4.75087,-0.81159 6.891052,-1.72548 -0.112904,-0.22102 -0.659082,-0.33835 -1.348755,-0.36122 z" /><path
       id="rect1412-6"
       style="opacity:0.95;fill:url(#radialGradient2604);fill-opacity:1;stroke-width:2.03723"
       d="m 51.183567,59.388579 a 26.487366,25.72053 0 0 0 -6.276619,0.744658 h 12.59458 A 26.487366,25.72053 0 0 0 51.183567,59.388579 Z M 39.249412,62.16257 a 26.487366,25.72053 0 0 0 -2.087728,1.147217 H 65.239557 A 26.487366,25.72053 0 0 0 63.143561,62.16257 Z m -4.985741,3.176551 a 26.487366,25.72053 0 0 0 -1.243335,1.05885 h 36.335249 a 26.487366,25.72053 0 0 0 -1.231967,-1.05885 z m -3.295406,3.177067 a 26.487366,25.72053 0 0 0 -0.874882,1.05885 h 42.198456 a 26.487366,25.72053 0 0 0 -0.872298,-1.05885 z m -2.363164,3.17655 a 26.487366,25.72053 0 0 0 -0.633553,1.05885 h 46.440575 a 26.487366,25.72053 0 0 0 -0.632519,-1.05885 z m -1.699121,3.17655 a 26.487366,25.72053 0 0 0 -0.456303,1.05885 h 49.473982 a 26.487366,25.72053 0 0 0 -0.4439,-1.05885 z m -1.175639,3.176551 a 26.487366,25.72053 0 0 0 -0.292488,1.05885 h 51.499698 a 26.487366,25.72053 0 0 0 -0.285254,-1.05885 z m -0.727604,3.17655 a 26.487366,25.72053 0 0 0 -0.127124,1.05885 h 52.632962 a 26.487366,25.72053 0 0 0 -0.14211,-1.05885 z m -0.279053,3.177067 a 26.487366,25.72053 0 0 0 -0.02739,0.710034 26.487366,25.72053 0 0 0 0.01344,0.348816 h 52.947671 a 26.487366,25.72053 0 0 0 0.01344,-0.348816 26.487366,25.72053 0 0 0 -0.01033,-0.710034 z m 0.110071,3.17655 a 26.487366,25.72053 0 0 0 0.12299,1.05885 h 52.454162 a 26.487366,25.72053 0 0 0 0.12299,-1.05885 z m 0.51108,3.176551 a 26.487366,25.72053 0 0 0 0.285771,1.05885 h 51.105923 a 26.487366,25.72053 0 0 0 0.285771,-1.05885 z m 0.974617,3.17655 a 26.487366,25.72053 0 0 0 0.424264,1.05885 h 48.879703 a 26.487366,25.72053 0 0 0 0.424264,-1.05885 z m 1.455209,3.17655 a 26.487366,25.72053 0 0 0 0.596863,1.059367 h 45.624087 a 26.487366,25.72053 0 0 0 0.596863,-1.059367 z m 2.04432,3.177063 a 26.487366,25.72053 0 0 0 0.829923,1.05885 h 41.069844 a 26.487366,25.72053 0 0 0 0.829407,-1.05885 z m 2.829284,3.17655 a 26.487366,25.72053 0 0 0 1.182874,1.05885 h 34.704857 a 26.487366,25.72053 0 0 0 1.182874,-1.05885 z m 4.065384,3.17655 a 26.487366,25.72053 0 0 0 1.831413,1.05885 h 25.27701 a 26.487366,25.72053 0 0 0 1.83193,-1.05885 z m 7.14375,3.17655 a 26.487366,25.72053 0 0 0 7.326168,1.01751 26.487366,25.72053 0 0 0 7.326685,-1.01751 z" /><text
       xml:space="preserve"
       style="font-style:normal;font-weight:normal;font-size:33.8667px;line-height:1.25;font-family:sans-serif;fill:#000000;fill-opacity:1;stroke:none;stroke-width:0.85449"
       x="119.96597"
       y="81.670822"
       id="text5105"><tspan
         sodipodi:role="line"
         id="tspan5103"
         style="font-style:normal;font-variant:normal;font-weight:normal;font-stretch:normal;font-size:33.8667px;font-family:'El Messiri';-inkscape-font-specification:'El Messiri';stroke-width:0.85449"
         x="119.96597"
         y="81.670822">dventure</tspan></text><text
       xml:space="preserve"
       style="font-style:normal;font-weight:normal;font-size:69.1444px;line-height:1.25;font-family:sans-serif;fill:#000000;fill-opacity:1;stroke:none;stroke-width:1.60869"
       x="82.906609"
       y="104.65428"
       id="text287"><tspan
         sodipodi:role="line"
         id="tspan285"
         style="font-style:normal;font-variant:normal;font-weight:normal;font-stretch:normal;font-size:69.1444px;font-family:'El Messiri';-inkscape-font-specification:'El Messiri';stroke-width:1.60869"
         x="82.906609"
         y="104.65428">A</tspan></text></g></svg>
