<?xml version="1.0" encoding="UTF-8" standalone="no"?>
<!-- Generator: Adobe Illustrator 22.1.0, SVG Export Plug-In . SVG Version: 6.00 Build 0)  -->

<svg
   version="1.1"
   id="svg2"
   inkscape:version="1.2 (dc2aedaf03, 2022-05-15)"
   sodipodi:docname="bluecupIcon_logo.svg"
   x="0px"
   y="0px"
   viewBox="0 0 2048 512"
   xml:space="preserve"
   width="2048"
   height="512"
   inkscape:export-filename="bluecupIcon_logo.png"
   inkscape:export-xdpi="48"
   inkscape:export-ydpi="48"
   xmlns:inkscape="http://www.inkscape.org/namespaces/inkscape"
   xmlns:sodipodi="http://sodipodi.sourceforge.net/DTD/sodipodi-0.dtd"
   xmlns:xlink="http://www.w3.org/1999/xlink"
   xmlns="http://www.w3.org/2000/svg"
   xmlns:svg="http://www.w3.org/2000/svg"
   xmlns:rdf="http://www.w3.org/1999/02/22-rdf-syntax-ns#"
   xmlns:cc="http://creativecommons.org/ns#"
   xmlns:dc="http://purl.org/dc/elements/1.1/"><metadata
     id="metadata253"><rdf:RDF><cc:Work
         rdf:about=""><dc:format>image/svg+xml</dc:format><dc:type
           rdf:resource="http://purl.org/dc/dcmitype/StillImage" /></cc:Work></rdf:RDF></metadata><defs
     id="defs251"><linearGradient
       inkscape:collect="always"
       xlink:href="#SVGID_16_"
       id="linearGradient5261"
       gradientUnits="userSpaceOnUse"
       gradientTransform="matrix(4.7871898,0.009617,-0.47123179,4.6522064,-1118.3743,-1689.6642)"
       x1="357.58661"
       y1="453.7507"
       x2="357.58661"
       y2="407.31839" /><linearGradient
       inkscape:collect="always"
       xlink:href="#SVGID_16_"
       id="linearGradient629"
       gradientUnits="userSpaceOnUse"
       gradientTransform="matrix(1.0143,0.00203763,-0.09984363,0.9857,34.9743,4.9963)"
       x1="357.58661"
       y1="453.7507"
       x2="357.58661"
       y2="407.31839" /></defs><style
     type="text/css"
     id="style3">
	.st0{fill:#37ABC8;}
	.st1{fill:url(#path5443-2_1_);}
	.st2{fill:url(#path5414_1_);}
	.st3{fill:none;stroke:#000000;}
	.st4{fill:url(#path5439_1_);}
	.st5{fill:url(#path5443-2-4_1_);}
	.st6{fill:#606060;}
	.st7{fill:#7A7A7A;}
	.st8{fill:#FFFFFF;}
	.st9{fill:#2B2B2B;}
	.st10{fill:#575757;}
	.st11{clip-path:url(#SVGID_2_);fill:#7A7A7A;}
	.st12{fill:url(#path5396_9_);}
	.st13{clip-path:url(#path5396_10_);fill:url(#SVGID_3_);}
	.st14{clip-path:url(#path5396_10_);fill:url(#SVGID_4_);}
	.st15{fill:url(#SVGID_5_);}
	.st16{fill:url(#SVGID_6_);}
	.st17{fill:url(#SVGID_7_);}
	.st18{fill:url(#SVGID_8_);}
	.st19{fill:url(#SVGID_9_);}
	.st20{fill:url(#SVGID_10_);}
	.st21{fill:url(#path5396_11_);}
	.st22{clip-path:url(#path5396_12_);fill:url(#SVGID_11_);}
	.st23{clip-path:url(#path5396_12_);fill:url(#SVGID_12_);}
	.st24{fill:url(#SVGID_13_);}
	.st25{fill:url(#SVGID_14_);}
	.st26{fill:url(#SVGID_15_);}
	.st27{fill:url(#SVGID_16_);}
	.st28{fill:url(#SVGID_17_);}
	.st29{fill:url(#SVGID_18_);}
	.st30{clip-path:url(#path5396_13_);}
</style><sodipodi:namedview
     bordercolor="#666666"
     borderopacity="1.0"
     id="base"
     inkscape:current-layer="svg2"
     inkscape:cx="1075.8125"
     inkscape:cy="483.86307"
     inkscape:document-units="px"
     inkscape:object-nodes="true"
     inkscape:object-paths="true"
     inkscape:pageopacity="0.0"
     inkscape:pageshadow="2"
     inkscape:snap-center="true"
     inkscape:snap-global="true"
     inkscape:snap-object-midpoints="true"
     inkscape:snap-smooth-nodes="true"
     inkscape:window-height="1411"
     inkscape:window-maximized="1"
     inkscape:window-width="2482"
     inkscape:window-x="69"
     inkscape:window-y="-9"
     inkscape:zoom="0.49497475"
     pagecolor="#ffffff"
     showgrid="false"
     units="px"
     inkscape:showpageshadow="0"
     inkscape:pagecheckerboard="1"
     inkscape:deskcolor="#d1d1d1" /><linearGradient
     id="path5443-2_1_"
     gradientUnits="userSpaceOnUse"
     x1="38.634399"
     y1="292.6785"
     x2="138.1933"
     y2="292.6785"
     gradientTransform="matrix(1,0,0,-1,7.59e-4,511.464)"><stop
       offset="0"
       style="stop-color:#0000D4"
       id="stop9" /><stop
       offset="1"
       style="stop-color:#0000D4;stop-opacity:0"
       id="stop11" /></linearGradient><linearGradient
     id="path5414_1_"
     gradientUnits="userSpaceOnUse"
     x1="151.47881"
     y1="199.5002"
     x2="94.057198"
     y2="281.80219"
     gradientTransform="matrix(1,0,0,-1,0,511.4646)"><stop
       offset="0"
       style="stop-color:#0000D4"
       id="stop16" /><stop
       offset="1"
       style="stop-color:#0000D4;stop-opacity:0"
       id="stop18" /></linearGradient><linearGradient
     id="path5439_1_"
     gradientUnits="userSpaceOnUse"
     x1="58.932499"
     y1="190.4451"
     x2="91.093102"
     y2="259.1344"
     gradientTransform="matrix(1,0,0,-1,0,511.4646)"><stop
       offset="0"
       style="stop-color:#0000D4"
       id="stop23" /><stop
       offset="1"
       style="stop-color:#0000D4;stop-opacity:0"
       id="stop25" /></linearGradient><linearGradient
     id="path5443-2-4_1_"
     gradientUnits="userSpaceOnUse"
     x1="46.867699"
     y1="-247.4583"
     x2="130.9478"
     y2="-247.4583"
     gradientTransform="matrix(1,0,0,-1,0,-28.8976)"><stop
       offset="0"
       style="stop-color:#0000AA"
       id="stop29" /><stop
       offset="1"
       style="stop-color:#0000AA;stop-opacity:0"
       id="stop31" /></linearGradient><linearGradient
     id="path5396_9_"
     gradientUnits="userSpaceOnUse"
     x1="224.4511"
     y1="446.47839"
     x2="230.6848"
     y2="411.1254"><stop
       offset="0"
       style="stop-color:#0072FF"
       id="stop67" /><stop
       offset="1"
       style="stop-color:#00C6FF"
       id="stop69" /></linearGradient><linearGradient
     id="SVGID_5_"
     gradientUnits="userSpaceOnUse"
     x1="230.1837"
     y1="420.66129"
     x2="230.1837"
     y2="408.54401"><stop
       offset="0.1661"
       style="stop-color:#0072FF"
       id="stop95" /><stop
       offset="0.272"
       style="stop-color:#0079FF"
       id="stop97" /><stop
       offset="0.4296"
       style="stop-color:#008EFF"
       id="stop99" /><stop
       offset="0.6187"
       style="stop-color:#00AEFF"
       id="stop101" /><stop
       offset="0.7337"
       style="stop-color:#00C6FF"
       id="stop103" /></linearGradient><linearGradient
     id="SVGID_6_"
     gradientUnits="userSpaceOnUse"
     x1="230.1837"
     y1="418.7182"
     x2="230.1837"
     y2="410.16849"><stop
       offset="0"
       style="stop-color:#2B32B2"
       id="stop108" /><stop
       offset="1"
       style="stop-color:#0072FF"
       id="stop110" /></linearGradient><linearGradient
     id="SVGID_10_"
     gradientUnits="userSpaceOnUse"
     x1="229.9398"
     y1="434.57169"
     x2="229.8833"
     y2="419.28671"><stop
       offset="0"
       style="stop-color:#00C6FF"
       id="stop138" /><stop
       offset="1"
       style="stop-color:#0072FF"
       id="stop140" /></linearGradient><linearGradient
     id="path5396_11_"
     gradientUnits="userSpaceOnUse"
     x1="304.8439"
     y1="467.92068"
     x2="321.97189"
     y2="370.78311"
     gradientTransform="matrix(4.7196981,0,0,4.7196981,-1285.4424,-1713.2452)"><stop
       offset="0"
       style="stop-color:#0072FF"
       id="stop145" /><stop
       offset="1"
       style="stop-color:#00C6FF"
       id="stop147" /></linearGradient><linearGradient
     id="SVGID_13_"
     gradientUnits="userSpaceOnUse"
     x1="320.59509"
     y1="396.98459"
     x2="320.59509"
     y2="363.69049"
     gradientTransform="matrix(4.7196981,0,0,4.7196981,-1285.4424,-1713.2452)"><stop
       offset="0.1661"
       style="stop-color:#0072FF"
       id="stop173" /><stop
       offset="0.272"
       style="stop-color:#0079FF"
       id="stop175" /><stop
       offset="0.4296"
       style="stop-color:#008EFF"
       id="stop177" /><stop
       offset="0.6187"
       style="stop-color:#00AEFF"
       id="stop179" /><stop
       offset="0.7337"
       style="stop-color:#00C6FF"
       id="stop181" /></linearGradient><linearGradient
     id="SVGID_14_"
     gradientUnits="userSpaceOnUse"
     x1="320.59509"
     y1="391.64551"
     x2="320.59509"
     y2="368.15381"
     gradientTransform="matrix(4.7196981,0,0,4.7196981,-1285.4424,-1713.2452)"><stop
       offset="0"
       style="stop-color:#2B32B2"
       id="stop186" /><stop
       offset="1"
       style="stop-color:#0072FF"
       id="stop188" /></linearGradient><linearGradient
     id="SVGID_18_"
     gradientUnits="userSpaceOnUse"
     x1="319.9249"
     y1="435.20541"
     x2="319.76959"
     y2="393.20749"
     gradientTransform="matrix(4.7196981,0,0,4.7196981,-1285.4424,-1713.2452)"><stop
       offset="0"
       style="stop-color:#00C6FF"
       id="stop216" /><stop
       offset="1"
       style="stop-color:#0072FF"
       id="stop218" /></linearGradient><rect
     style="opacity:0.95;fill:#ffffff;fill-opacity:1"
     id="rect3536"
     width="2048"
     height="512"
     x="0"
     y="0" /><g
     id="g375"
     transform="matrix(0.52262673,0,0,0.52262673,80.751725,119.20269)"><path
       id="path5396_8_"
       inkscape:connector-curvature="0"
       sodipodi:nodetypes="cccccccscsccccc"
       class="st21"
       d="M 442.439,73.63252 12.946466,74.10449 80.43815,409.67503 c 3.775759,16.51895 14.631064,22.65455 14.631064,22.65455 l 79.290926,47.19698 4.24773,2.35985 26.43031,16.04697 c 1.41591,0.94394 1.88788,0.94394 2.83183,1.88788 8.49545,5.19167 12.74317,7.55152 17.46288,8.02349 5.19166,0.47197 9.43939,-2.35985 18.87879,-8.02349 13.21515,-8.02348 33.98182,-20.2947 33.98182,-20.2947 v 0 l 79.29092,-47.19698 c 0,0 10.85531,-6.60757 14.63107,-22.65455 C 398.5458,298.29016 442.439,73.63252 442.439,73.63252 Z"
       style="fill:url(#path5396_11_)" /><g
       id="g150"
       transform="matrix(4.7196981,0,0,4.7196981,-1285.4424,-1713.2452)"><defs
         id="defs152"><path
           id="path5396_7_"
           inkscape:connector-curvature="0"
           sodipodi:nodetypes="cccccccscsccccc"
           d="m 366.1,378.6 -91,0.1 14.3,71.1 c 0.8,3.5 3.1,4.8 3.1,4.8 l 16.8,10 0.9,0.5 5.6,3.4 c 0.3,0.2 0.4,0.2 0.6,0.4 1.8,1.1 2.7,1.6 3.7,1.7 1.1,0.1 2,-0.5 4,-1.7 2.8,-1.7 7.2,-4.3 7.2,-4.3 v 0 l 16.8,-10 c 0,0 2.3,-1.4 3.1,-4.8 5.6,-23.6 14.9,-71.2 14.9,-71.2 z" /></defs><clipPath
         id="path5396_12_"><use
           xlink:href="#path5396_7_"
           style="overflow:visible"
           id="use156"
           x="0"
           y="0"
           width="100%"
           height="100%" /></clipPath><linearGradient
         id="SVGID_11_"
         gradientUnits="userSpaceOnUse"
         x1="288.41171"
         y1="467.67911"
         x2="303.48779"
         y2="382.1778"><stop
           offset="0"
           style="stop-color:#00C6FF"
           id="stop159" /><stop
           offset="1"
           style="stop-color:#0072FF"
           id="stop161" /></linearGradient><path
         style="fill:url(#SVGID_11_)"
         clip-path="url(#path5396_12_)"
         d="m 320.6,394.9 v 78.5 l -34,-18.7 -15.3,-78.2 z"
         id="polygon163"
         inkscape:connector-curvature="0" /><linearGradient
         id="SVGID_12_"
         gradientUnits="userSpaceOnUse"
         x1="453.8515"
         y1="467.67911"
         x2="468.9277"
         y2="382.1778"
         gradientTransform="matrix(-1,0,0,1,806.6301,0)"><stop
           offset="0"
           style="stop-color:#0072FF"
           id="stop166" /><stop
           offset="1"
           style="stop-color:#00C6FF"
           id="stop168" /></linearGradient><path
         style="fill:url(#SVGID_12_)"
         clip-path="url(#path5396_12_)"
         d="m 320.6,394.9 v 78.5 l 34,-18.7 15.3,-78.2 z"
         id="polygon170"
         inkscape:connector-curvature="0" /></g><path
       class="st24"
       d="M 170.11242,148.20375 20.969954,81.656008 C 9.6426767,76.464339 10.586616,61.361306 22.857833,58.057516 L 184.27151,8.9726561 c 26.90227,-8.02348745 55.22047,-8.02348745 82.12275,0.4719688 L 432.9996,61.361306 c 12.27122,3.775757 13.21516,18.878791 1.41591,24.070459 L 281.49729,149.61967 c -35.8697,14.63105 -76.45911,14.63105 -111.38487,-1.41592 z"
       id="path183"
       style="fill:url(#SVGID_13_)"
       inkscape:connector-curvature="0" /><path
       class="st25"
       d="M 185.21545,126.49313 76.190421,79.768128 C 67.694964,75.99237 68.638904,65.609033 77.606331,62.777214 L 195.59878,28.323418 c 19.82274,-5.663637 40.58941,-5.663637 59.94018,0 l 121.7682,36.341675 c 8.96743,2.831819 9.4394,13.215156 0.94394,16.990915 L 266.39426,126.96511 c -25.95834,10.8553 -55.22048,10.8553 -81.17881,-0.47198 z"
       id="path190"
       style="fill:url(#SVGID_14_)"
       inkscape:connector-curvature="0" /><path
       style="fill:url(#SVGID_18_)"
       d="m 138.96241,134.51664 88.73032,212.38641 80.70684,-209.08264 z"
       id="polygon220"
       inkscape:connector-curvature="0" /><path
       inkscape:connector-curvature="0"
       style="fill:url(#linearGradient5261)"
       id="path206-9"
       d="m 471.81332,313.86513 c -10.8553,18.40683 -16.51894,24.54243 -27.37425,42.94926 -1.88787,2.83182 -8.02348,10.38333 -9.91136,12.74318 -4.7197,5.19167 -11.32728,15.10304 -17.46288,18.40682 -6.60758,3.30379 -13.68713,8.96743 -20.29471,12.27122 -19.35076,10.38334 -33.98182,17.46288 -55.22046,21.71061 -6.13561,1.41591 -12.74319,1.88788 -18.8788,2.35985 -6.1356,0.47197 -15.10303,0.94394 -24.07046,-1.88788 0,-3.30379 0.47197,-6.60758 0.94394,-9.91137 0,0 1.41591,-15.10303 1.41591,-15.10303 0,0 17.93485,-0.47197 18.87879,-0.47197 10.85531,-0.94394 21.71062,-3.30379 32.56592,-7.07955 12.27122,-4.24772 23.12652,-11.79924 33.03789,-20.2947 7.07955,-6.13561 13.21515,-13.68712 17.46288,-21.71061 4.7197,-9.4394 7.07955,-19.35076 6.13561,-29.26213 -0.94394,-11.79924 -6.60758,-23.12652 -15.10304,-31.15001 -4.24772,-4.24772 -9.43939,-7.07954 -15.10303,-9.91136 -6.60758,-3.77576 -13.21515,-7.07955 -19.82273,-10.85531 -7.07955,-3.77576 -14.1591,-8.02348 -21.23864,-11.79924 -3.30379,-1.88788 -7.07955,-3.77576 -10.38334,-5.66364 -1.41591,-0.47197 -10.38333,-4.7197 -10.38333,-5.66364 1.41591,-11.32727 2.35984,-22.65455 3.77575,-33.98182 26.43031,14.63106 52.86062,29.26212 79.29093,43.89319 15.10304,8.49545 29.7341,16.51894 43.89319,25.95834 1.41591,0.94394 2.83182,1.88788 3.77576,3.30379 0.47197,1.41591 0.47197,2.35985 0.47197,3.77575 0,6.60758 4.7197,11.32728 4.7197,17.93486 8.02349,2.35985 11.32728,7.07954 18.87879,9.43939 z"
       class="st27" /><g
       id="g192"
       transform="matrix(4.7196981,0,0,4.7196981,-1285.4424,-1713.2452)"><linearGradient
         id="SVGID_15_"
         gradientUnits="userSpaceOnUse"
         x1="347.5838"
         y1="442.7825"
         x2="351.97769"
         y2="447.04459"
         gradientTransform="matrix(1.0143,0.00203763,-0.09984363,0.9857,34.9743,4.9963)"><stop
           offset="0"
           style="stop-color:#0072FF"
           id="stop195" /><stop
           offset="1"
           style="stop-color:#00C6FF"
           id="stop197" /></linearGradient><path
         class="st26"
         d="m 335.8,447.2 10.1,-5.1 c 0,0 5.1,0.1 8.3,-1.3 -0.6,3.5 -12.9,8.6 -12.9,8.6 z"
         id="path199"
         style="fill:url(#SVGID_15_)"
         inkscape:connector-curvature="0" /><linearGradient
         id="SVGID_16_"
         gradientUnits="userSpaceOnUse"
         x1="357.58661"
         y1="453.7507"
         x2="357.58661"
         y2="407.31839"
         gradientTransform="matrix(1.0143,0.00203763,-0.09984363,0.9857,34.9743,4.9963)"><stop
           offset="1"
           style="stop-color:#0072FF"
           id="stop202" /><stop
           offset="1"
           style="stop-color:#00C6FF"
           id="stop204" /></linearGradient><path
         class="st27"
         d="m 371.9,429.5 c -2.3,3.9 -3.5,5.2 -5.8,9.1 -0.4,0.6 -1.7,2.2 -2.1,2.7 -1,1.1 -2.4,3.2 -3.7,3.9 -1.4,0.7 -2.9,1.9 -4.3,2.6 -4.1,2.2 -7.2,3.7 -11.7,4.6 -1.3,0.3 -2.7,0.4 -4,0.5 -1.3,0.1 -3.2,0.2 -5.1,-0.4 0,-0.7 0.1,-1.4 0.2,-2.1 0,0 0.3,-3.2 0.3,-3.2 0,0 3.8,-0.1 4,-0.1 2.3,-0.2 4.6,-0.7 6.9,-1.5 2.6,-0.9 4.9,-2.5 7,-4.3 1.5,-1.3 2.8,-2.9 3.7,-4.6 1,-2 1.5,-4.1 1.3,-6.2 -0.2,-2.5 -1.4,-4.9 -3.2,-6.6 -0.9,-0.9 -2,-1.5 -3.2,-2.1 -1.4,-0.8 -2.8,-1.5 -4.2,-2.3 -1.5,-0.8 -3,-1.7 -4.5,-2.5 -0.7,-0.4 -1.5,-0.8 -2.2,-1.2 -0.3,-0.1 -2.2,-1 -2.2,-1.2 0.3,-2.4 0.5,-4.8 0.8,-7.2 5.6,3.1 11.2,6.2 16.8,9.3 3.2,1.8 6.3,3.5 9.3,5.5 0.3,0.2 0.6,0.4 0.8,0.7 0.1,0.3 0.1,0.5 0.1,0.8 0,1.4 1,2.4 1,3.8 1.7,0.5 2.4,1.5 4,2 z"
         id="path206"
         style="fill:url(#linearGradient629)"
         inkscape:connector-curvature="0" /><linearGradient
         id="SVGID_17_"
         gradientUnits="userSpaceOnUse"
         x1="369.37711"
         y1="430.59839"
         x2="361.76379"
         y2="414.8483"
         gradientTransform="matrix(1.0143,0.00203763,-0.09984363,0.9857,34.9743,4.9963)"><stop
           offset="0"
           style="stop-color:#0072FF"
           id="stop209" /><stop
           offset="1"
           style="stop-color:#00C6FF"
           id="stop211" /></linearGradient><path
         class="st28"
         d="m 357.3,447.1 9.8,-6.1 c 3.3,-2.1 6.2,-4.7 8.4,-7.8 3,-4.1 4.7,-8.8 4.1,-13.9 v 0 c -0.2,-2.4 -1.6,-4.5 -3.6,-5.6 L 353.8,402 c 0,0 -13.9,5.3 -13.9,5.3 3.8,2.1 7.6,4.2 11.4,6.3 2.6,1.4 5.1,2.8 7.7,4.2 2.7,1.5 5.4,3.2 6.8,5.9 2.3,4.5 1.5,9.9 -1,14.6 -1.6,3 -4.4,7.1 -7.6,8.9 0,-0.1 0.1,-0.1 0.1,-0.1 z"
         id="path213"
         style="fill:url(#SVGID_17_)"
         inkscape:connector-curvature="0" /></g></g><text
     xml:space="preserve"
     style="font-style:normal;font-weight:normal;font-size:192px;line-height:1.25;font-family:sans-serif;fill:#000000;fill-opacity:1;stroke:none"
     x="410.20032"
     y="312.2041"
     id="text641"><tspan
       sodipodi:role="line"
       id="tspan639"
       x="410.20032"
       y="312.2041"
       style="font-style:normal;font-variant:normal;font-weight:normal;font-stretch:normal;font-size:192px;font-family:'Barlow Condensed';-inkscape-font-specification:'Barlow Condensed, '">Adventure Game Studio</tspan></text></svg>
